<?xml version="1.0" encoding="UTF-8"?>
<svg version="1.1" xmlns="http://www.w3.org/2000/svg" width="600" height="480">
<path d="M0 0 C198 0 396 0 600 0 C600 158.4 600 316.8 600 480 C402 480 204 480 0 480 C0 321.6 0 163.2 0 0 Z " fill="#FEFEFE" transform="translate(0,0)"/>
<path d="M0 0 C1.44518005 0.00406357 1.44518005 0.00406357 2.91955566 0.00820923 C17.71327324 0.07122189 31.97807847 0.7239242 46.375 4.4375 C47.46772217 4.71835449 47.46772217 4.71835449 48.58251953 5.00488281 C52.58482435 6.07797125 56.49367076 7.33168852 60.39257812 8.73242188 C62.50695796 9.48443283 64.63447042 10.1876593 66.765625 10.890625 C86.57033304 17.6017437 104.88731567 27.60112801 121.375 40.4375 C121.94331543 40.87884277 122.51163086 41.32018555 123.09716797 41.77490234 C162.16717377 72.56118764 188.32716629 117.34515896 196.375 166.4375 C196.5493457 167.47970703 196.72369141 168.52191406 196.90332031 169.59570312 C197.45048268 174.05230092 197.57332723 178.41694754 197.61328125 182.90234375 C197.62302979 183.80471268 197.63277832 184.7070816 197.64282227 185.63679504 C197.96887801 223.62779185 197.96887801 223.62779185 193.375 241.4375 C193.18776367 242.16598145 193.00052734 242.89446289 192.80761719 243.64501953 C191.73452875 247.64732435 190.48081148 251.55617076 189.08007812 255.45507812 C188.32806717 257.56945796 187.6248407 259.69697042 186.921875 261.828125 C180.2107563 281.63283304 170.21137199 299.94981567 157.375 316.4375 C156.93365723 317.00581543 156.49231445 317.57413086 156.03759766 318.15966797 C125.03802854 357.50034625 80.20243704 383.6040561 30.69482422 391.08374023 C29.01700825 391.33959746 27.34568242 391.63929772 25.68017578 391.96582031 C21.41977346 392.57381982 17.23619696 392.63797599 12.9375 392.67578125 C12.02842896 392.6855751 11.11935791 392.69536896 10.18273926 392.70545959 C-27.17851212 393.02529515 -27.17851212 393.02529515 -43.625 388.4375 C-44.47304199 388.21255859 -45.32108398 387.98761719 -46.19482422 387.75585938 C-72.4602023 380.71555497 -97.12452726 369.17654354 -118.625 352.4375 C-119.19331543 351.99615723 -119.76163086 351.55481445 -120.34716797 351.10009766 C-159.68784625 320.10052854 -185.7915561 275.26493704 -193.27124023 225.75732422 C-193.52709746 224.07950825 -193.82679772 222.40818242 -194.15332031 220.74267578 C-194.76131982 216.48227346 -194.82547599 212.29869696 -194.86328125 208 C-194.87797203 206.63639343 -194.87797203 206.63639343 -194.89295959 205.24523926 C-195.21279515 167.88398788 -195.21279515 167.88398788 -190.625 151.4375 C-190.40005859 150.58945801 -190.17511719 149.74141602 -189.94335938 148.86767578 C-182.90425858 122.60678805 -171.36917794 97.93002691 -154.625 76.4375 C-154.17833984 75.86386719 -153.73167969 75.29023437 -153.27148438 74.69921875 C-142.11728932 60.58709641 -129.20028199 47.97158382 -114.625 37.4375 C-114.06441895 37.02725586 -113.50383789 36.61701172 -112.92626953 36.19433594 C-96.16292202 24.05784531 -77.33879665 14.67341027 -57.625 8.4375 C-56.87412109 8.19950684 -56.12324219 7.96151367 -55.34960938 7.71630859 C-53.09348472 7.01648317 -50.83142202 6.34457582 -48.5625 5.6875 C-47.92787842 5.5006665 -47.29325684 5.31383301 -46.6394043 5.12133789 C-31.20730688 0.9025866 -15.91763541 -0.10515919 0 0 Z " fill="#FCFCFB" transform="translate(298.625,43.5625)"/>
<path d="M0 0 C1.32135398 0.45778416 2.64297459 0.91479933 3.96484375 1.37109375 C49.67664889 17.48512803 87.92920325 51.95753369 109.20751953 95.46923828 C116.91617828 111.91625481 125.15379132 131.42619572 125.375 149.875 C125.40335937 150.96554688 125.43171875 152.05609375 125.4609375 153.1796875 C125 156 125 156 123.29394531 157.65101624 C120.57897381 159.24758981 118.96971332 159.3852986 115.8359375 159.40405273 C114.29413818 159.42307899 114.29413818 159.42307899 112.72119141 159.44248962 C111.61694824 159.43955399 110.51270508 159.43661835 109.375 159.43359375 C108.23595215 159.4388356 107.0969043 159.44407745 105.92333984 159.44947815 C103.51595881 159.4558994 101.10854641 159.45456006 98.70117188 159.44604492 C95.01375628 159.43753176 91.32788766 159.46630256 87.640625 159.49804688 C85.3020838 159.49965885 82.96353985 159.49908143 80.625 159.49609375 C79.52075684 159.50732773 78.41651367 159.51856171 77.27880859 159.53013611 C76.25094238 159.52075516 75.22307617 159.51137421 74.1640625 159.50170898 C73.26123535 159.50154282 72.3584082 159.50137665 71.42822266 159.50120544 C68.23604455 158.84231321 67.04501132 157.47894299 65 155 C64.12207031 152.90380859 64.12207031 152.90380859 63.578125 150.6484375 C63.25376465 149.38507568 63.25376465 149.38507568 62.92285156 148.09619141 C62.70081055 147.19819824 62.47876953 146.30020508 62.25 145.375 C53.26318848 111.89710305 32.92053439 85.53226816 3 68 C-25.41845632 51.89730574 -59.53921694 46.95278123 -91.20410156 55.60205078 C-110.35736893 61.09616594 -128.05831748 70.11151145 -142.6484375 83.82421875 C-144.35859169 85.4065375 -146.1393384 86.91357782 -147.95703125 88.37109375 C-151.19121987 91.04761057 -153.750302 94.0621452 -156.3125 97.375 C-157.01862427 98.28475586 -157.01862427 98.28475586 -157.73901367 99.21289062 C-169.37083016 114.50501411 -176.41486892 130.91383293 -181.55322266 149.35742188 C-181.82827637 150.31712891 -182.10333008 151.27683594 -182.38671875 152.265625 C-182.62608154 153.12961914 -182.86544434 153.99361328 -183.11206055 154.88378906 C-184 157 -184 157 -187 159 C-189.35266113 159.26069641 -189.35266113 159.26069641 -192.15820312 159.2746582 C-193.7349884 159.28895622 -193.7349884 159.28895622 -195.34362793 159.30354309 C-196.47804321 159.30263168 -197.6124585 159.30172028 -198.78125 159.30078125 C-199.94628052 159.30506638 -201.11131104 159.3093515 -202.31164551 159.31376648 C-204.77627919 159.31951272 -207.24092984 159.32000789 -209.70556641 159.31567383 C-213.48499326 159.31251255 -217.26363866 159.33597506 -221.04296875 159.36132812 C-223.43489484 159.36360087 -225.82682305 159.36430473 -228.21875 159.36328125 C-229.92037292 159.37709587 -229.92037292 159.37709587 -231.65637207 159.39118958 C-232.70756226 159.38496078 -233.75875244 159.37873199 -234.84179688 159.37231445 C-236.23054016 159.37325859 -236.23054016 159.37325859 -237.64733887 159.3742218 C-240.44693312 158.92890939 -241.32995344 158.25387454 -243 156 C-247.20772771 134.15488031 -233.02272898 106.6769321 -223 88 C-222.39671875 86.84242188 -221.7934375 85.68484375 -221.171875 84.4921875 C-204.37690601 53.51323209 -176.96273259 28.35700918 -146 12 C-144.80720145 11.34000677 -143.61449525 10.67984662 -142.421875 10.01953125 C-100.32517873 -12.70795786 -44.87195751 -16.3214013 0 0 Z " fill="#040C53" transform="translate(359,63)"/>
<path d="M0 0 C1.57194374 -0.01902626 1.57194374 -0.01902626 3.17564392 -0.03843689 C4.30692215 -0.03550125 5.43820038 -0.03256561 6.60375977 -0.02954102 C8.34774803 -0.03740379 8.34774803 -0.03740379 10.12696838 -0.04542542 C12.58740439 -0.05185303 15.04787109 -0.05049912 17.50830078 -0.04199219 C21.27700456 -0.03348825 25.04419044 -0.06222629 28.81274414 -0.09399414 C31.20141556 -0.09560631 33.59008967 -0.09502831 35.97875977 -0.09204102 C37.10801376 -0.10327499 38.23726776 -0.11450897 39.40074158 -0.12608337 C40.45185623 -0.11670242 41.50297089 -0.10732147 42.5859375 -0.09765625 C43.50954575 -0.09749008 44.43315399 -0.09732391 45.38475037 -0.09715271 C48.60946051 0.55642489 49.79460892 1.90059477 51.85766602 4.40405273 C52.75146484 6.42431641 52.75146484 6.42431641 53.31469727 8.57202148 C53.53609375 9.37414062 53.75749023 10.17625977 53.9855957 11.00268555 C54.21150391 11.85701172 54.43741211 12.71133789 54.67016602 13.59155273 C60.15415598 32.86585631 67.76253223 50.65763148 81.84985352 65.29077148 C83.85766602 67.40405273 83.85766602 67.40405273 85.79907227 69.90405273 C89.52586478 74.42994876 94.25767544 77.80615984 98.85766602 81.40405273 C99.71618164 82.08983398 100.57469727 82.77561523 101.45922852 83.48217773 C109.03811474 89.29799979 117.22400944 93.41583295 125.85766602 97.40405273 C127.13383789 98.00540039 127.13383789 98.00540039 128.43579102 98.61889648 C133.94230589 101.01596327 139.69419706 102.53935925 145.48266602 104.09155273 C146.28293213 104.30642334 147.08319824 104.52129395 147.90771484 104.74267578 C180.57663817 113.18065753 214.44604354 105.24595926 242.99438477 88.57202148 C273.80642043 69.03167844 291.2602287 38.86748059 300.11938477 4.15405273 C300.85766602 2.40405273 300.85766602 2.40405273 303.85766602 0.40405273 C306.16563416 0.14335632 306.16563416 0.14335632 308.90820312 0.12939453 C309.93614487 0.11986252 310.96408661 0.11033051 312.0231781 0.10050964 C313.13258255 0.10142105 314.241987 0.10233246 315.38500977 0.10327148 C316.52547256 0.09898636 317.66593536 0.09470123 318.84095764 0.09028625 C321.25431657 0.08453984 323.66769281 0.08404497 326.08105469 0.08837891 C329.77707425 0.09153727 333.47229244 0.06808805 337.16821289 0.04272461 C339.51131084 0.04045154 341.85441094 0.03974816 344.19750977 0.04077148 C345.30488998 0.03156174 346.4122702 0.02235199 347.5532074 0.01286316 C348.5843013 0.01909195 349.6153952 0.02532074 350.67773438 0.03173828 C351.58357773 0.03110886 352.48942108 0.03047943 353.42271423 0.02983093 C356.34453116 0.47887785 357.72353123 1.38840576 359.85766602 3.40405273 C365.34606116 27.4319874 346.44725888 61.67444237 334.29516602 81.40405273 C321.14600331 101.06663789 305.77229993 118.20389416 286.85766602 132.40405273 C286.02493164 133.03182617 285.19219727 133.65959961 284.33422852 134.30639648 C270.8200423 144.10764075 256.37548607 151.37496944 240.85766602 157.40405273 C239.6549707 157.88745117 238.45227539 158.37084961 237.21313477 158.86889648 C230.74207409 161.34733532 224.24441171 163.13597501 217.48266602 164.59155273 C216.7646582 164.7465625 216.04665039 164.90157227 215.30688477 165.0612793 C202.40648517 167.66289767 189.65080601 168.73983065 176.52099609 168.66479492 C174.29244924 168.65403962 172.06470499 168.6647907 169.83618164 168.67749023 C157.02474091 168.69115337 144.55018528 167.43082592 132.10766602 164.21655273 C131.27332031 164.00297119 130.43897461 163.78938965 129.5793457 163.56933594 C114.56001713 159.58574005 100.51746074 153.76179595 86.85766602 146.40405273 C86.25083984 146.0832373 85.64401367 145.76242187 85.01879883 145.43188477 C75.91480024 140.59492491 67.78766954 134.94838762 59.85766602 128.40405273 C59.26920898 127.91855957 58.68075195 127.43306641 58.07446289 126.93286133 C45.86726087 116.79174457 35.38266335 106.10278975 25.85766602 93.40405273 C24.88120117 92.10274414 24.88120117 92.10274414 23.88500977 90.77514648 C19.36795594 84.5294707 15.51197487 77.92258217 11.82202148 71.16577148 C10.9319965 69.5398423 10.02263634 67.92453706 9.11157227 66.31030273 C0.05604726 49.41223297 -11.74431164 23.03836228 -8.14233398 3.40405273 C-5.75426071 0.20841933 -3.88516964 0.02274732 0 0 Z " fill="#020A52" transform="translate(124.142333984375,257.595947265625)"/>
<path d="M0 0 C1.44518005 0.00406357 1.44518005 0.00406357 2.91955566 0.00820923 C17.71327324 0.07122189 31.97807847 0.7239242 46.375 4.4375 C47.46772217 4.71835449 47.46772217 4.71835449 48.58251953 5.00488281 C52.58482435 6.07797125 56.49367076 7.33168852 60.39257812 8.73242188 C62.50695796 9.48443283 64.63447042 10.1876593 66.765625 10.890625 C86.57033304 17.6017437 104.88731567 27.60112801 121.375 40.4375 C121.94331543 40.87884277 122.51163086 41.32018555 123.09716797 41.77490234 C162.16717377 72.56118764 188.32716629 117.34515896 196.375 166.4375 C196.5493457 167.47970703 196.72369141 168.52191406 196.90332031 169.59570312 C197.45048268 174.05230092 197.57332723 178.41694754 197.61328125 182.90234375 C197.62302979 183.80471268 197.63277832 184.7070816 197.64282227 185.63679504 C197.96887801 223.62779185 197.96887801 223.62779185 193.375 241.4375 C193.18776367 242.16598145 193.00052734 242.89446289 192.80761719 243.64501953 C191.73452875 247.64732435 190.48081148 251.55617076 189.08007812 255.45507812 C188.32806717 257.56945796 187.6248407 259.69697042 186.921875 261.828125 C180.2107563 281.63283304 170.21137199 299.94981567 157.375 316.4375 C156.93365723 317.00581543 156.49231445 317.57413086 156.03759766 318.15966797 C125.03802854 357.50034625 80.20243704 383.6040561 30.69482422 391.08374023 C29.01700825 391.33959746 27.34568242 391.63929772 25.68017578 391.96582031 C21.41977346 392.57381982 17.23619696 392.63797599 12.9375 392.67578125 C12.02842896 392.6855751 11.11935791 392.69536896 10.18273926 392.70545959 C-27.17851212 393.02529515 -27.17851212 393.02529515 -43.625 388.4375 C-44.47304199 388.21255859 -45.32108398 387.98761719 -46.19482422 387.75585938 C-72.4602023 380.71555497 -97.12452726 369.17654354 -118.625 352.4375 C-119.19331543 351.99615723 -119.76163086 351.55481445 -120.34716797 351.10009766 C-159.68784625 320.10052854 -185.7915561 275.26493704 -193.27124023 225.75732422 C-193.52709746 224.07950825 -193.82679772 222.40818242 -194.15332031 220.74267578 C-194.76131982 216.48227346 -194.82547599 212.29869696 -194.86328125 208 C-194.87797203 206.63639343 -194.87797203 206.63639343 -194.89295959 205.24523926 C-195.21279515 167.88398788 -195.21279515 167.88398788 -190.625 151.4375 C-190.40005859 150.58945801 -190.17511719 149.74141602 -189.94335938 148.86767578 C-182.90425858 122.60678805 -171.36917794 97.93002691 -154.625 76.4375 C-154.17833984 75.86386719 -153.73167969 75.29023437 -153.27148438 74.69921875 C-142.11728932 60.58709641 -129.20028199 47.97158382 -114.625 37.4375 C-114.06441895 37.02725586 -113.50383789 36.61701172 -112.92626953 36.19433594 C-96.16292202 24.05784531 -77.33879665 14.67341027 -57.625 8.4375 C-56.87412109 8.19950684 -56.12324219 7.96151367 -55.34960938 7.71630859 C-53.09348472 7.01648317 -50.83142202 6.34457582 -48.5625 5.6875 C-47.92787842 5.5006665 -47.29325684 5.31383301 -46.6394043 5.12133789 C-31.20730688 0.9025866 -15.91763541 -0.10515919 0 0 Z M-42.375 14.625 C-43.2093457 14.83858154 -44.04369141 15.05216309 -44.90332031 15.2722168 C-59.92264888 19.25581269 -73.96520527 25.07975678 -87.625 32.4375 C-88.53523926 32.91872314 -88.53523926 32.91872314 -89.46386719 33.40966797 C-98.56786577 38.24662782 -106.69499647 43.89316512 -114.625 50.4375 C-115.21345703 50.92299316 -115.80191406 51.40848633 -116.40820312 51.90869141 C-128.61686258 62.05101893 -139.09387057 72.74202037 -148.625 85.4375 C-149.25277344 86.27023438 -149.88054687 87.10296875 -150.52734375 87.9609375 C-166.66282716 110.20892168 -182.83623603 141.16111521 -182.9375 169.3125 C-182.95425781 170.40304688 -182.97101563 171.49359375 -182.98828125 172.6171875 C-182.86036726 175.39178784 -182.86036726 175.39178784 -181.4236908 177.08851624 C-179.0145932 178.89529345 -177.47913707 178.82400867 -174.48266602 178.84155273 C-173.43470352 178.85423691 -172.38674103 178.86692108 -171.30702209 178.87998962 C-169.61010475 178.87558617 -169.61010475 178.87558617 -167.87890625 178.87109375 C-166.71624741 178.8763356 -165.55358856 178.88157745 -164.35569763 178.88697815 C-161.89526163 178.89340577 -159.43479493 178.89205185 -156.97436523 178.88354492 C-153.20566146 178.87504098 -149.43847558 178.90377902 -145.66992188 178.93554688 C-143.28125046 178.93715905 -140.89257635 178.93658105 -138.50390625 178.93359375 C-136.81002525 178.95044472 -136.81002525 178.95044472 -135.08192444 178.96763611 C-134.03080978 178.95825516 -132.97969513 178.94887421 -131.89672852 178.93920898 C-130.51131615 178.93895973 -130.51131615 178.93895973 -129.09791565 178.93870544 C-125.87094798 178.28467029 -124.68598896 176.94648173 -122.625 174.4375 C-121.67046941 172.32018324 -121.67046941 172.32018324 -121.16796875 170.015625 C-120.94657227 169.16315186 -120.72517578 168.31067871 -120.49707031 167.43237305 C-120.27116211 166.52656494 -120.04525391 165.62075684 -119.8125 164.6875 C-112.57147747 137.81961671 -98.17835245 114.19520388 -75.625 97.4375 C-74.77808594 96.76460938 -73.93117188 96.09171875 -73.05859375 95.3984375 C-47.84592372 75.93470713 -15.02490886 68.53280285 16.31103516 71.73779297 C38.65222514 74.82816022 60.77103016 83.17136152 78.375 97.4375 C78.92929687 97.88109863 79.48359375 98.32469727 80.0546875 98.78173828 C88.14560704 105.29819668 95.23844225 111.98715818 101.375 120.4375 C101.7767041 120.98212891 102.1784082 121.52675781 102.59228516 122.08789062 C113.10533545 136.48224762 119.31436496 151.86806482 124.0300293 168.99804688 C124.29468994 169.93712891 124.55935059 170.87621094 124.83203125 171.84375 C125.05866455 172.68228516 125.28529785 173.52082031 125.51879883 174.38476562 C126.29789842 176.78649247 126.29789842 176.78649247 129.375 178.4375 C131.75007799 178.74753129 131.75007799 178.74753129 134.42553711 178.7121582 C135.45347885 178.72169022 136.48142059 178.73122223 137.54051208 178.74104309 C138.64991653 178.74013168 139.75932098 178.73922028 140.90234375 178.73828125 C142.61303795 178.74470894 142.61303795 178.74470894 144.35829163 178.75126648 C146.77165055 178.75701289 149.1850268 178.75750777 151.59838867 178.75317383 C155.29440823 178.75001546 158.98962642 178.77346469 162.68554688 178.79882812 C165.02864482 178.8011012 167.37174492 178.80180458 169.71484375 178.80078125 C171.37591408 178.81459587 171.37591408 178.81459587 173.07054138 178.82868958 C174.10163528 178.82246078 175.13272919 178.81623199 176.19506836 178.80981445 C177.55383339 178.81075859 177.55383339 178.81075859 178.94004822 178.8117218 C181.86797797 178.36173542 183.24296854 177.46636528 185.375 175.4375 C190.30367976 154.26117247 175.08965313 125.54034575 165.375 107.4375 C164.77171875 106.27992188 164.1684375 105.12234375 163.546875 103.9296875 C155.39042166 88.88480088 144.41442299 75.54313787 132.375 63.4375 C131.87564941 62.93412109 131.37629883 62.43074219 130.86181641 61.91210938 C112.65709285 43.80616664 90.27811865 30.50934528 66.375 21.4375 C65.63668945 21.15390625 64.89837891 20.8703125 64.13769531 20.578125 C51.84102326 15.93332415 39.34732089 13.4152247 26.375 11.4375 C25.28985107 11.26025391 24.20470215 11.08300781 23.08666992 10.90039062 C19.08461327 10.40128522 15.1505155 10.27570039 11.125 10.26953125 C10.34922607 10.26620285 9.57345215 10.26287445 8.77416992 10.25944519 C7.13705024 10.25440667 5.49992039 10.25203591 3.86279297 10.25219727 C1.40964882 10.2500306 -1.0430301 10.23189705 -3.49609375 10.21289062 C-16.73029291 10.1643154 -29.51109592 11.30187057 -42.375 14.625 Z M-29.625 78.4375 C-30.83285156 78.7778125 -32.04070312 79.118125 -33.28515625 79.46875 C-65.08901523 89.20395399 -90.44905498 111.05200489 -106.56640625 139.9140625 C-110.86421866 148.13838604 -114.07947445 156.53282271 -116.625 165.4375 C-117.10646484 167.05205078 -117.10646484 167.05205078 -117.59765625 168.69921875 C-122.1172705 186.79869723 -121.51281666 208.42623041 -116.625 226.4375 C-116.34293701 227.49590088 -116.34293701 227.49590088 -116.05517578 228.57568359 C-107.33085632 260.09289493 -86.89050816 285.84028378 -58.9375 302.625 C-31.66710423 317.92013502 0.66246876 322.04540184 31.13745117 314.77880859 C33.64307875 314.06954556 36.10020083 313.28462689 38.5625 312.4375 C39.44687744 312.13553711 40.33125488 311.83357422 41.24243164 311.52246094 C73.75965944 299.95280175 97.43233941 277.17266872 112.42919922 246.43017578 C117.07113107 236.65024605 119.62417623 227.06074154 121.375 216.4375 C121.560625 215.42429687 121.74625 214.41109375 121.9375 213.3671875 C123.67525247 197.75844656 123.88241453 180.5773238 119.375 165.4375 C119.0346875 164.22964844 118.694375 163.02179688 118.34375 161.77734375 C112.27822218 141.96192008 101.62891316 125.36631435 87.375 110.4375 C86.83875 109.83808594 86.3025 109.23867187 85.75 108.62109375 C80.56615565 103.03550147 74.29153378 98.81733714 68.01757812 94.55517578 C66.66306157 93.6335086 65.3218226 92.69235978 63.984375 91.74609375 C51.63294971 83.59326447 35.90365479 78.72057432 21.375 76.4375 C19.88613281 76.16486328 19.88613281 76.16486328 18.3671875 75.88671875 C2.97133055 73.75345596 -14.68647541 73.99001609 -29.625 78.4375 Z M-182.625 217.4375 C-187.98406349 242.54302268 -168.81481095 276.67311085 -155.875 297.09375 C-137.86700318 324.23623796 -114.50071978 346.20597998 -85.625 361.4375 C-84.53316406 362.02917969 -83.44132812 362.62085938 -82.31640625 363.23046875 C-69.61768407 369.88078222 -56.25207983 374.70354567 -42.375 378.25 C-41.6207373 378.44480957 -40.86647461 378.63961914 -40.08935547 378.84033203 C-27.12374725 381.97472294 -14.1521379 382.84727665 -0.875 382.8125 C-0.12197601 382.81228851 0.63104797 382.81207703 1.40689087 382.81185913 C21.58507816 382.75582853 41.37219008 380.48394736 60.375 373.4375 C61.69339113 372.97868537 63.0124199 372.52169948 64.33203125 372.06640625 C109.04123661 356.33248587 145.73670292 323.44736084 167.375 281.4375 C167.88256836 280.47505371 167.88256836 280.47505371 168.40039062 279.49316406 C173.11177096 270.48028448 176.62664388 261.23798221 179.75 251.5625 C180.08394775 250.52875244 180.41789551 249.49500488 180.76196289 248.42993164 C183.39324515 239.98099058 185.61757583 231.33640426 185.75 222.4375 C185.77835937 221.550625 185.80671875 220.66375 185.8359375 219.75 C185.58341344 217.32358339 185.58341344 217.32358339 183.66894531 215.81822205 C180.95005948 214.18172897 179.3666226 214.05233252 176.2109375 214.03344727 C175.18307129 214.02076309 174.15520508 214.00807892 173.09619141 213.99501038 C171.99194824 213.99794601 170.88770508 214.00088165 169.75 214.00390625 C168.61095215 213.9986644 167.4719043 213.99342255 166.29833984 213.98802185 C163.89095881 213.9816006 161.48354641 213.98293994 159.07617188 213.99145508 C155.38875628 213.99996824 151.70288766 213.97119744 148.015625 213.93945312 C145.6770838 213.93784115 143.33853985 213.93841857 141 213.94140625 C139.89575684 213.93017227 138.79151367 213.91893829 137.65380859 213.90736389 C136.62594238 213.91674484 135.59807617 213.92612579 134.5390625 213.93579102 C133.63623535 213.93595718 132.7334082 213.93612335 131.80322266 213.93629456 C128.59593555 214.59830541 127.41363178 215.92842985 125.375 218.4375 C124.2785333 221.26994168 124.2785333 221.26994168 123.5625 224.5 C118.09319266 244.95137882 109.82532547 262.05098791 96.375 278.4375 C95.70597656 279.26121094 95.03695313 280.08492188 94.34765625 280.93359375 C75.43399311 303.25094269 44.87610251 318.09803645 15.9609375 321.2265625 C-17.42357622 323.94977057 -51.39276423 316.15068743 -77.41015625 294.07421875 C-79.07955229 292.57200817 -80.7353931 291.05445675 -82.37109375 289.515625 C-84.61298629 287.39062733 -84.61298629 287.39062733 -87.14453125 285.4765625 C-106.66285525 269.43157804 -116.84337208 241.86755225 -122.88671875 218.1875 C-123.59518643 216.05942472 -123.59518643 216.05942472 -126.625 214.4375 C-129.04790744 214.12726811 -129.04790744 214.12726811 -131.78320312 214.1628418 C-133.3599884 214.14854378 -133.3599884 214.14854378 -134.96862793 214.13395691 C-136.67025085 214.13532402 -136.67025085 214.13532402 -138.40625 214.13671875 C-139.57128052 214.13243362 -140.73631104 214.1281485 -141.93664551 214.12373352 C-144.40127919 214.11798728 -146.86592984 214.11749211 -149.33056641 214.12182617 C-153.10999326 214.12498745 -156.88863866 214.10152494 -160.66796875 214.07617188 C-163.05989484 214.07389913 -165.45182305 214.07319527 -167.84375 214.07421875 C-168.97816528 214.065009 -170.11258057 214.05579926 -171.28137207 214.04631042 C-172.33256226 214.05253922 -173.38375244 214.05876801 -174.46679688 214.06518555 C-175.39262573 214.06455612 -176.31845459 214.0639267 -177.27233887 214.0632782 C-180.06460471 214.50742493 -180.94631361 215.20287312 -182.625 217.4375 Z " fill="#F7F6F5" transform="translate(298.625,43.5625)"/>
<path d="M0 0 C1.44518005 0.00406357 1.44518005 0.00406357 2.91955566 0.00820923 C17.71327324 0.07122189 31.97807847 0.7239242 46.375 4.4375 C47.46772217 4.71835449 47.46772217 4.71835449 48.58251953 5.00488281 C52.58482435 6.07797125 56.49367076 7.33168852 60.39257812 8.73242188 C62.50695796 9.48443283 64.63447042 10.1876593 66.765625 10.890625 C86.57033304 17.6017437 104.88731567 27.60112801 121.375 40.4375 C121.94331543 40.87884277 122.51163086 41.32018555 123.09716797 41.77490234 C162.16717377 72.56118764 188.32716629 117.34515896 196.375 166.4375 C196.5493457 167.47970703 196.72369141 168.52191406 196.90332031 169.59570312 C197.45048268 174.05230092 197.57332723 178.41694754 197.61328125 182.90234375 C197.62302979 183.80471268 197.63277832 184.7070816 197.64282227 185.63679504 C197.96887801 223.62779185 197.96887801 223.62779185 193.375 241.4375 C193.18776367 242.16598145 193.00052734 242.89446289 192.80761719 243.64501953 C191.73452875 247.64732435 190.48081148 251.55617076 189.08007812 255.45507812 C188.32806717 257.56945796 187.6248407 259.69697042 186.921875 261.828125 C180.2107563 281.63283304 170.21137199 299.94981567 157.375 316.4375 C156.93365723 317.00581543 156.49231445 317.57413086 156.03759766 318.15966797 C125.03802854 357.50034625 80.20243704 383.6040561 30.69482422 391.08374023 C29.01700825 391.33959746 27.34568242 391.63929772 25.68017578 391.96582031 C21.41977346 392.57381982 17.23619696 392.63797599 12.9375 392.67578125 C12.02842896 392.6855751 11.11935791 392.69536896 10.18273926 392.70545959 C-27.17851212 393.02529515 -27.17851212 393.02529515 -43.625 388.4375 C-44.47304199 388.21255859 -45.32108398 387.98761719 -46.19482422 387.75585938 C-72.4602023 380.71555497 -97.12452726 369.17654354 -118.625 352.4375 C-119.19331543 351.99615723 -119.76163086 351.55481445 -120.34716797 351.10009766 C-159.68784625 320.10052854 -185.7915561 275.26493704 -193.27124023 225.75732422 C-193.52709746 224.07950825 -193.82679772 222.40818242 -194.15332031 220.74267578 C-194.76131982 216.48227346 -194.82547599 212.29869696 -194.86328125 208 C-194.87797203 206.63639343 -194.87797203 206.63639343 -194.89295959 205.24523926 C-195.21279515 167.88398788 -195.21279515 167.88398788 -190.625 151.4375 C-190.40005859 150.58945801 -190.17511719 149.74141602 -189.94335938 148.86767578 C-182.90425858 122.60678805 -171.36917794 97.93002691 -154.625 76.4375 C-154.17833984 75.86386719 -153.73167969 75.29023437 -153.27148438 74.69921875 C-142.11728932 60.58709641 -129.20028199 47.97158382 -114.625 37.4375 C-114.06441895 37.02725586 -113.50383789 36.61701172 -112.92626953 36.19433594 C-96.16292202 24.05784531 -77.33879665 14.67341027 -57.625 8.4375 C-56.87412109 8.19950684 -56.12324219 7.96151367 -55.34960938 7.71630859 C-53.09348472 7.01648317 -50.83142202 6.34457582 -48.5625 5.6875 C-47.92787842 5.5006665 -47.29325684 5.31383301 -46.6394043 5.12133789 C-31.20730688 0.9025866 -15.91763541 -0.10515919 0 0 Z M-130.09814453 56.97802734 C-131.12815775 57.96258427 -132.16312459 58.9419814 -133.20263672 59.91650391 C-168.51324568 93.10139059 -189.13843058 141.44381692 -190.921875 189.6875 C-191.31589272 209.22497549 -189.31449989 228.69728071 -183.625 247.4375 C-183.35026855 248.3464502 -183.07553711 249.25540039 -182.79248047 250.19189453 C-179.00648444 262.51694679 -174.86313386 274.36304869 -168.60742188 285.66113281 C-167.63728847 287.41528059 -166.70117739 289.18810503 -165.765625 290.9609375 C-157.99152767 305.25628177 -147.92008409 317.77596505 -136.625 329.4375 C-136.11855957 329.96972168 -135.61211914 330.50194336 -135.09033203 331.05029297 C-127.49569663 339.01893319 -119.6044461 346.06838787 -110.625 352.4375 C-110.03992676 352.85628418 -109.45485352 353.27506836 -108.85205078 353.70654297 C-99.56129359 360.30070845 -89.92818356 365.60383824 -79.625 370.4375 C-78.64789063 370.90929687 -77.67078125 371.38109375 -76.6640625 371.8671875 C-43.97721879 387.29997881 -6.2434859 392.32547074 29.375 386.4375 C30.1086377 386.3245459 30.84227539 386.2115918 31.59814453 386.09521484 C52.78367673 382.75295665 73.65256728 375.92290283 92.375 365.4375 C93.53386719 364.82519531 94.69273437 364.21289062 95.88671875 363.58203125 C109.26053371 356.31853712 121.42828639 346.99267691 132.375 336.4375 C132.9407373 335.89754395 133.50647461 335.35758789 134.08935547 334.80126953 C142.6967021 326.55246897 150.4871372 318.18039059 157.375 308.4375 C157.77493164 307.88723145 158.17486328 307.33696289 158.58691406 306.77001953 C177.88568846 280.1138739 188.50034689 248.90453134 192.375 216.4375 C192.47377441 215.75792236 192.57254883 215.07834473 192.67431641 214.37817383 C199.1397443 169.378566 183.58708071 119.57671706 156.74267578 83.37792969 C151.37781846 76.34986119 145.48549588 69.82045094 139.375 63.4375 C138.84922363 62.8791748 138.32344727 62.32084961 137.78173828 61.74560547 C115.99030119 38.67951416 89.18630767 23.6735829 59.375 13.4375 C58.27929688 13.04691406 57.18359375 12.65632813 56.0546875 12.25390625 C42.29951061 7.6389187 26.88492136 4.83731414 12.375 4.4375 C11.56434082 4.41171875 10.75368164 4.3859375 9.91845703 4.359375 C-42.25227082 2.89826587 -92.25339166 20.78351752 -130.09814453 56.97802734 Z " fill="#B1892A" transform="translate(298.625,43.5625)"/>
<path d="M0 0 C2 2 2 2 2.25 4.875 C2 8 2 8 1.0078125 9.9296875 C-1.00022039 14.05471631 -0.63816263 18.65247319 0.546875 23.01171875 C2.98695144 28.68604745 7.29772942 32.54743928 11.7578125 36.703125 C14.91749457 39.93987249 16.29376739 42.53915019 16.4375 47.0625 C16.35481388 52.10635355 14.39786224 55.75967612 12.18359375 60.20703125 C10.42967257 64.34582214 9.87077699 68.51411551 10 73 C11.15140868 74.35854025 11.15140868 74.35854025 14.25 74.375 C18.02175381 74.29104076 18.02175381 74.29104076 20.75 72.1875 C23.86093603 67.78034063 24.87458484 63.22448828 26 58 C27.32 57.67 28.64 57.34 30 57 C36.85419146 66.13892195 37.04070532 76.97893061 36 88 C33.32509453 101.43532065 25.01981676 112.45851583 13.75 120.0625 C11.3926995 121.5869526 10.56719946 122.09618592 7.765625 121.62109375 C7.18296875 121.41613281 6.6003125 121.21117187 6 121 C6.02320313 120.10796875 6.04640625 119.2159375 6.0703125 118.296875 C6.08835937 117.12640625 6.10640625 115.9559375 6.125 114.75 C6.14820313 113.58984375 6.17140625 112.4296875 6.1953125 111.234375 C6.0103949 108.17213954 5.60823023 106.55797249 4 104 C3.38125 105.4540625 3.38125 105.4540625 2.75 106.9375 C1 110 1 110 -1.125 110.9375 C-1.74375 110.958125 -2.3625 110.97875 -3 111 C-3.33 110.67 -3.66 110.34 -4 110 C-3.83984275 108.30991959 -3.67439083 106.62012355 -3.47827148 104.93383789 C-2.63225531 98.70334396 -2.63225531 98.70334396 -4.04296875 92.73046875 C-5.36157717 91.15330965 -6.68077075 89.57663984 -8 88 C-8.88256415 83.5532345 -8.17447619 79.93850908 -6 76 C-7.64696604 76.4752588 -9.29254728 76.95531891 -10.9375 77.4375 C-11.85402344 77.70433594 -12.77054687 77.97117187 -13.71484375 78.24609375 C-15.9402493 78.79026051 -15.9402493 78.79026051 -17 80 C-17.55195807 85.74036394 -16.55706202 87.66483066 -13 92 C-12.75 95.3125 -12.75 95.3125 -13 98 C-14.98 98.495 -14.98 98.495 -17 99 C-17.495 95.04 -17.495 95.04 -18 91 C-19.65 90.67 -21.3 90.34 -23 90 C-22.835 90.94875 -22.67 91.8975 -22.5 92.875 C-22.42628283 98.024671 -25.94520086 101.16969341 -29.15234375 104.86328125 C-31.9927916 108.14811206 -32.21495919 110.35521294 -32.5625 114.625 C-32.64628906 115.62789063 -32.73007812 116.63078125 -32.81640625 117.6640625 C-32.90728516 118.82035156 -32.90728516 118.82035156 -33 120 C-34.734375 120.6796875 -34.734375 120.6796875 -37 121 C-46.60346522 115.83723486 -54.36113094 106.32562996 -58.15234375 96.25 C-60.28677884 88.06635948 -60.26551786 79.64512114 -56.2578125 72.078125 C-55.84273437 71.39234375 -55.42765625 70.7065625 -55 70 C-54.56429687 69.25234375 -54.12859375 68.5046875 -53.6796875 67.734375 C-51.14344197 63.65975104 -48.39242597 60.26880338 -44.9375 56.9375 C-39.13451266 51.33385192 -35.8751226 45.62773234 -33.67578125 37.8828125 C-33 36 -33 36 -31 34 C-28.125 33.5625 -28.125 33.5625 -25 34 C-22.625 35.875 -22.625 35.875 -21 39 C-20.68176297 42.3620202 -20.76474668 45.63457059 -21 49 C-18.70705512 49.85974801 -18.70705512 49.85974801 -16 50 C-12.90690731 47.93793821 -12.08999376 46.25998197 -10.875 42.75 C-11.05389964 37.38301074 -13.53602448 34.90846795 -17 31 C-18.10421387 29.70837369 -19.20838328 28.41670936 -20.3125 27.125 C-21.04919922 26.29355469 -21.04919922 26.29355469 -21.80078125 25.4453125 C-24.59570002 22.07684363 -24.40527406 18.75505346 -24.3203125 14.53125 C-23.94189676 11.54084265 -23.03414779 9.53414779 -20.8828125 7.3828125 C-14.78148251 2.90175271 -7.74021368 -1.34612412 0 0 Z " fill="#060E56" transform="translate(309,142)"/>
<path d="M0 0 C20.18308104 17.29255518 34.09420716 38.04311028 41.42919922 63.70214844 C41.91066406 65.31669922 41.91066406 65.31669922 42.40185547 66.96386719 C46.96585821 85.24110608 46.03100905 106.4949878 41.42919922 124.70214844 C41.17396484 125.77207031 40.91873047 126.84199219 40.65576172 127.94433594 C35.12358072 148.29667155 23.86335677 165.58455539 9.42919922 180.70214844 C8.89294922 181.3015625 8.35669922 181.90097656 7.80419922 182.51855469 C-4.59388986 195.87749567 -22.24065812 204.82735512 -39.25830078 210.63964844 C-40.0762915 210.92219482 -40.89428223 211.20474121 -41.73706055 211.49584961 C-70.08722525 220.63211674 -102.88427192 217.44932202 -129.57080078 204.70214844 C-138.15185148 200.26270898 -146.22342924 194.98428767 -153.57080078 188.70214844 C-154.36744141 188.02667969 -155.16408203 187.35121094 -155.98486328 186.65527344 C-179.45328268 166.16581749 -194.31299629 138.77487695 -197.57080078 107.70214844 C-197.84506724 102.88518057 -197.90552406 98.08871074 -197.88330078 93.26464844 C-197.87838623 91.99347168 -197.87347168 90.72229492 -197.8684082 89.41259766 C-197.75652548 80.46312764 -197.13625769 72.31918716 -194.57080078 63.70214844 C-194.06033203 61.89037109 -194.06033203 61.89037109 -193.53955078 60.04199219 C-183.80434679 28.23813321 -161.95629589 2.87809346 -133.09423828 -13.23925781 C-124.86991474 -17.53707023 -116.47547807 -20.75232601 -107.57080078 -23.29785156 C-106.49443359 -23.61882812 -105.41806641 -23.93980469 -104.30908203 -24.27050781 C-68.95584634 -33.09855157 -27.89293396 -23.04613567 0 0 Z M-165.06591797 17.99462891 C-187.92177636 43.92809315 -194.5222502 75.96514476 -192.57080078 109.70214844 C-190.20815805 136.19117849 -176.80137692 159.01722772 -158.57080078 177.70214844 C-157.99072266 178.34410156 -157.41064453 178.98605469 -156.81298828 179.64746094 C-142.85913466 194.72323244 -119.92751397 206.60009653 -99.57080078 208.70214844 C-97.96941232 191.20532552 -97.96941232 191.20532552 -96.9128418 173.66918945 C-96.67468338 168.80603104 -96.67468338 168.80603104 -95.57080078 167.70214844 C-93.29132287 167.60193914 -91.00872943 167.57133541 -88.72705078 167.56933594 C-87.70061462 167.56790085 -87.70061462 167.56790085 -86.65344238 167.56643677 C-85.20418201 167.56575514 -83.7549186 167.56760821 -82.30566406 167.57177734 C-80.0801715 167.57712592 -77.85488077 167.57183184 -75.62939453 167.56542969 C-74.22444617 167.56609047 -72.81949793 167.56737164 -71.41455078 167.56933594 C-70.12742187 167.57046387 -68.84029297 167.5715918 -67.51416016 167.57275391 C-64.57080078 167.70214844 -64.57080078 167.70214844 -63.57080078 168.70214844 C-63.35154437 171.13718879 -63.19153026 173.55072628 -63.07080078 175.99121094 C-63.03019531 176.7278598 -62.98958984 177.46450867 -62.94775391 178.22348022 C-62.81767052 180.59115422 -62.69374178 182.95909359 -62.57080078 185.32714844 C-62.44732126 187.67374164 -62.32242159 190.0202268 -62.19384766 192.36654663 C-62.113922 193.82782635 -62.03693082 195.28927061 -61.96337891 196.75088501 C-61.72596915 201.12545913 -61.2474135 205.3795799 -60.57080078 209.70214844 C-34.47040281 208.06025789 -11.78345997 194.73422885 6.42919922 176.70214844 C7.09177734 176.10015625 7.75435547 175.49816406 8.43701172 174.87792969 C18.37104325 165.70627732 25.05744555 153.58243654 30.63330078 141.43261719 C31.29128086 140.0020151 31.97766721 138.58451555 32.67138672 137.17089844 C44.15725209 111.88418708 42.30659378 78.65484254 33.03515625 53.01269531 C21.58423037 23.41687732 -1.2489015 0.61936768 -29.84033203 -12.50195312 C-31.27093412 -13.1599332 -32.68843367 -13.84631955 -34.10205078 -14.54003906 C-79.1481532 -35.00112079 -133.2230297 -16.63922992 -165.06591797 17.99462891 Z " fill="#B0892B" transform="translate(376.57080078125,145.2978515625)"/>
<path d="M0 0 C1.02075623 -0.00287018 1.02075623 -0.00287018 2.06213379 -0.00579834 C3.50122446 -0.00715963 4.94032744 -0.00346705 6.37939453 0.00488281 C8.58524087 0.01558372 10.79027281 0.00498628 12.99609375 -0.0078125 C14.39323097 -0.00649089 15.79036768 -0.00392848 17.1875 0 C18.46302734 0.00225586 19.73855469 0.00451172 21.05273438 0.00683594 C24.09375 0.265625 24.09375 0.265625 26.09375 2.265625 C28.13983806 16.00915989 27.19677184 30.41948978 27.09375 44.265625 C23.11019868 44.29056056 19.12667833 44.30859528 15.14306641 44.32055664 C13.13051759 44.32798921 11.11799051 44.34070329 9.10546875 44.35351562 C2.67211629 44.36967983 -3.5502339 44.29523475 -9.90625 43.265625 C-10.09549675 20.20954737 -10.09549675 20.20954737 -9.53125 9.390625 C-9.50039307 8.69074463 -9.46953613 7.99086426 -9.43774414 7.26977539 C-9.00734379 0.18203904 -6.65050644 0.01176189 0 0 Z " fill="#10185B" transform="translate(287.90625,311.734375)"/>
<path d="M0 0 C1.62215675 0.00333092 1.62215675 0.00333092 3.27708435 0.00672913 C4.49827469 0.00680466 5.71946503 0.00688019 6.97766113 0.00695801 C8.32022644 0.0120654 9.66279134 0.01728141 11.00535583 0.02259827 C12.37156116 0.02446252 13.73776716 0.02588639 15.10397339 0.02688599 C18.70596654 0.03071058 22.30791959 0.04054035 25.90989685 0.05158997 C29.58298703 0.06180536 33.25608368 0.06638388 36.92918396 0.07142639 C44.14079081 0.08216268 51.35236459 0.09923838 58.56394958 0.12025452 C59.75144958 4.75306702 59.75144958 4.75306702 58.06394958 8.05775452 C51.89367607 15.61633957 44.36887513 21.12654735 34.4047699 22.39515686 C25.57328286 23.06398182 17.21113546 23.06440825 9.56394958 18.12025452 C8.51207458 17.52212952 7.46019958 16.92400452 6.37644958 16.30775452 C1.82949571 12.77123484 -1.80583504 9.38902987 -3.37355042 3.74525452 C-3.40448792 2.44587952 -3.40448792 2.44587952 -3.43605042 1.12025452 C-2.43605042 0.12025452 -2.43605042 0.12025452 0 0 Z " fill="#030B52" transform="translate(268.43605041503906,285.87974548339844)"/>
<path d="M0 0 C1.03437447 -0.00525696 1.03437447 -0.00525696 2.08964539 -0.01062012 C4.37431843 -0.01943923 6.65868306 -0.01358781 8.94335938 -0.00683594 C10.52754781 -0.00818254 12.11173584 -0.01012303 13.69592285 -0.01263428 C17.01818776 -0.01558578 20.34034522 -0.01128711 23.66259766 -0.00195312 C27.92672528 0.00944149 32.19060116 0.00288214 36.45471954 -0.00909805 C39.72660223 -0.01631599 42.99842498 -0.01402904 46.27030945 -0.00884247 C47.84282969 -0.00750578 49.41535532 -0.00915435 50.98786926 -0.01380157 C53.1834663 -0.01886579 55.37865241 -0.01115843 57.57421875 0 C59.45046936 0.00238678 59.45046936 0.00238678 61.36462402 0.00482178 C64.28710938 0.25878906 64.28710938 0.25878906 66.28710938 2.25878906 C66.53710938 5.75878906 66.53710938 5.75878906 66.28710938 9.25878906 C63.44532872 12.10056971 61.55466171 11.5125146 57.57421875 11.51757812 C56.53984428 11.52283508 56.53984428 11.52283508 55.48457336 11.52819824 C53.19990032 11.53701735 50.91553569 11.53116593 48.63085938 11.52441406 C47.04667094 11.52576067 45.46248291 11.52770116 43.8782959 11.5302124 C40.55603099 11.5331639 37.23387353 11.52886524 33.91162109 11.51953125 C29.64749347 11.50813664 25.38361759 11.51469598 21.11949921 11.52667618 C17.84761652 11.53389411 14.57579377 11.53160717 11.3039093 11.52642059 C9.73138906 11.52508391 8.15886343 11.52673247 6.58634949 11.5313797 C4.39075245 11.53644392 2.19556634 11.52873656 0 11.51757812 C-1.87625061 11.51519135 -1.87625061 11.51519135 -3.79040527 11.51275635 C-6.71289062 11.25878906 -6.71289062 11.25878906 -8.71289062 9.25878906 C-8.96289062 5.75878906 -8.96289062 5.75878906 -8.71289062 2.25878906 C-5.87110997 -0.58299159 -3.98044296 0.00506352 0 0 Z " fill="#0A1257" transform="translate(267.712890625,270.7412109375)"/>
<path d="M0 0 C4.0313884 3.19615599 4.0849782 7.46738011 4.9609375 12.28515625 C5.74659284 15.23185984 5.74659284 15.23185984 8.6015625 16.37109375 C9.78878906 16.68240234 9.78878906 16.68240234 11 17 C9.01593383 19.05492568 7.30429924 20.82611472 4.8125 22.25 C1.90826469 25.05408927 2.25867619 28.05518807 2 32 C0.02 32 -1.96 32 -4 32 C-3.94199219 32.60328125 -3.88398438 33.2065625 -3.82421875 33.828125 C-3.68476695 36.29841396 -3.65214758 38.54806466 -4 41 C-6.3125 43.375 -6.3125 43.375 -9 45 C-12.79255022 47.80929646 -13.05619178 51.57136143 -14 56 C-18.99515905 51.706167 -20.68647609 44.64255871 -21.4375 38.3125 C-20.31566731 29.81862394 -17.042145 25.62476147 -11.2890625 19.515625 C-6.16513346 13.8845494 -2.70025597 8.41929878 -1 1 C-0.67 0.67 -0.34 0.34 0 0 Z " fill="#1B2987" transform="translate(280,188)"/>
<path d="M0 0 C0.99 0 1.98 0 3 0 C3.3019164 4.91368937 2.32759084 8.80671241 0.5 13.3125 C0.23517822 13.96605469 -0.02964355 14.61960938 -0.30249023 15.29296875 C-2.71751902 20.90976653 -5.79344771 26.54902892 -11 30 C-13.74609375 29.71875 -13.74609375 29.71875 -16 29 C-16.20625 27.72125 -16.4125 26.4425 -16.625 25.125 C-17.08483533 22.92186032 -17.08483533 22.92186032 -18 21 C-20.99428144 19.38852558 -20.99428144 19.38852558 -24 19 C-24.36644578 17.44033408 -24.71760862 15.87707349 -25.0625 14.3125 C-25.25972656 13.44238281 -25.45695312 12.57226562 -25.66015625 11.67578125 C-26.02032279 8.83998724 -25.70909969 6.75210018 -25 4 C-23.00045254 3.95745644 -20.99958364 3.95919217 -19 4 C-18.67 4.33 -18.34 4.66 -18 5 C-12.20103977 5.42479606 -6.30239919 5.65119959 -1 3 C-0.67 2.01 -0.34 1.02 0 0 Z " fill="#233398" transform="translate(336,217)"/>
<path d="M0 0 C5.75 -0.125 5.75 -0.125 8 1 C8.59765625 3.765625 8.59765625 3.765625 9.0625 7.25 C9.60498919 11.21330947 10.21436207 15.07181037 11 19 C13.64 14.05 16.28 9.1 19 4 C22.3 4.33 25.6 4.66 29 5 C28.01 6.32 27.02 7.64 26 9 C25.23454217 11.59237881 25.23454217 11.59237881 24.83203125 14.421875 C24.66123047 15.44667969 24.49042969 16.47148438 24.31445312 17.52734375 C24.14880859 18.59082031 23.98316406 19.65429688 23.8125 20.75 C23.63525391 21.82894531 23.45800781 22.90789062 23.27539062 24.01953125 C22.84011924 26.6782159 22.41539832 29.33815042 22 32 C22.66 32.33 23.32 32.66 24 33 C22.18674449 32.88648483 20.37436643 32.75887039 18.5625 32.625 C17.55316406 32.55539063 16.54382813 32.48578125 15.50390625 32.4140625 C14.26447266 32.20910156 14.26447266 32.20910156 13 32 C12.67 31.34 12.34 30.68 12 30 C12.99 29.67 13.98 29.34 15 29 C16.03648954 26.31196209 16.03648954 26.31196209 16.6875 23.125 C16.93886719 22.05507812 17.19023437 20.98515625 17.44921875 19.8828125 C18.09383126 16.99804258 18.09383126 16.99804258 18 14 C17.37351562 15.07121094 16.74703125 16.14242187 16.1015625 17.24609375 C15.27631376 18.6433899 14.45077804 20.04051659 13.625 21.4375 C13.2125 22.14455078 12.8 22.85160156 12.375 23.58007812 C11.77558594 24.59038086 11.77558594 24.59038086 11.1640625 25.62109375 C10.79748535 26.2442749 10.4309082 26.86745605 10.05322266 27.50952148 C9 29 9 29 7 30 C6.01 24.39 5.02 18.78 4 13 C2.09130885 18.72607345 1.71350529 21.27010578 2 27 C2.33 27.66 2.66 28.32 3 29 C0.03 28.67 -2.94 28.34 -6 28 C-6 27.34 -6 26.68 -6 26 C-5.01 26 -4.02 26 -3 26 C0.90826605 12.73134897 0.90826605 12.73134897 0 0 Z " fill="#F0F0F4" transform="translate(318,71)"/>
<path d="M0 0 C3.74303838 4.49164606 6.56267746 9.47324755 7.5625 15.25 C7 18 7 18 4.8125 20.375 C1.76178431 22.13763573 0.44288646 22.52967484 -3 22 C-5.3125 21 -5.3125 21 -7 20 C-7.2475 20.53625 -7.495 21.0725 -7.75 21.625 C-9 24 -9 24 -11.0625 27.0625 C-13.10472543 29.8835734 -13.10472543 29.8835734 -14 33 C-14.66 33 -15.32 33 -16 33 C-16.69710731 31.71349294 -17.38242876 30.42059335 -18.0625 29.125 C-18.44535156 28.40570313 -18.82820313 27.68640625 -19.22265625 26.9453125 C-19.47917969 26.30335938 -19.73570312 25.66140625 -20 25 C-19.67 24.34 -19.34 23.68 -19 23 C-18.38640625 22.87753906 -17.7728125 22.75507813 -17.140625 22.62890625 C-14.24906929 21.77937984 -13.45424895 20.37767464 -11.75 17.9375 C-11.22921875 17.20402344 -10.7084375 16.47054687 -10.171875 15.71484375 C-9.78515625 15.14894531 -9.3984375 14.58304688 -9 14 C-10.62974564 14.76074843 -12.25366648 15.53398433 -13.875 16.3125 C-14.77992188 16.74175781 -15.68484375 17.17101562 -16.6171875 17.61328125 C-19.26449476 18.9199388 -19.26449476 18.9199388 -21 22 C-21.69965443 20.73581754 -22.38434763 19.46334598 -23.0625 18.1875 C-23.44535156 17.47980469 -23.82820313 16.77210938 -24.22265625 16.04296875 C-25 14 -25 14 -24 11 C-23.18015625 11.0825 -22.3603125 11.165 -21.515625 11.25 C-16.89994186 10.92177364 -13.76767067 9.17807787 -9.75 7 C-2.20945946 3 -2.20945946 3 0 3 C0 2.01 0 1.02 0 0 Z " fill="#EDEEF3" transform="translate(446,157)"/>
<path d="M0 0 C0.66 0.33 1.32 0.66 2 1 C2.11730469 1.84949219 2.23460937 2.69898437 2.35546875 3.57421875 C3.177755 7.94479476 5.01879895 11.05083028 7.3125 14.8125 C7.70373047 15.49248047 8.09496094 16.17246094 8.49804688 16.87304688 C10.58791161 20.62301808 10.58791161 20.62301808 14.14526367 22.69799805 C14.75732666 22.79765869 15.36938965 22.89731934 16 23 C16 23.66 16 24.32 16 25 C14.3203125 26.2890625 14.3203125 26.2890625 12.125 27.625 C11.40570313 28.07101563 10.68640625 28.51703125 9.9453125 28.9765625 C8 30 8 30 6 30 C5.87625 28.948125 5.7525 27.89625 5.625 26.8125 C5.08859218 23.54041229 4.36119965 20.99463924 3 18 C1.02 18.99 -0.96 19.98 -3 21 C-1.87548273 23.9719385 -0.77706209 26.33440687 1 29 C3.05925139 29.72382467 3.05925139 29.72382467 5 30 C5 30.66 5 31.32 5 32 C3.54735962 32.8638129 2.0876837 33.71580454 0.625 34.5625 C-0.18710938 35.03816406 -0.99921875 35.51382813 -1.8359375 36.00390625 C-2.90714844 36.49697266 -2.90714844 36.49697266 -4 37 C-4.66 36.67 -5.32 36.34 -6 36 C-6.11730469 34.98550781 -6.23460937 33.97101563 -6.35546875 32.92578125 C-7.1260741 28.23209413 -8.83361771 25.17354273 -11.3125 21.1875 C-11.70373047 20.52041016 -12.09496094 19.85332031 -12.49804688 19.16601562 C-14.56211135 15.77383005 -16.11441804 13.25370036 -20 12 C-13.25 8 -13.25 8 -11 8 C-9.35 11.3 -7.7 14.6 -6 18 C-4.35 17.34 -2.7 16.68 -1 16 C-1.64752739 12.50335208 -2.99617289 9.92867039 -5 7 C-5.99 6.34 -6.98 5.68 -8 5 C-6.71475739 4.13619741 -5.42157581 3.28419631 -4.125 2.4375 C-3.40570313 1.96183594 -2.68640625 1.48617187 -1.9453125 0.99609375 C-0.98238281 0.50302734 -0.98238281 0.50302734 0 0 Z " fill="#F0F0F5" transform="translate(221,88)"/>
<path d="M0 0 C0.66 0 1.32 0 2 0 C3.5078125 1.53125 3.5078125 1.53125 5.125 3.5 C5.66382813 4.1496875 6.20265625 4.799375 6.7578125 5.46875 C7.16773438 5.9740625 7.57765625 6.479375 8 7 C7.67 7.66 7.34 8.32 7 9 C6.38125 9.144375 5.7625 9.28875 5.125 9.4375 C2.61717359 10.1013364 1.76004324 11.15995479 0 13 C-0.66 13 -1.32 13 -2 13 C-2 13.66 -2 14.32 -2 15 C-0.20739868 14.94004678 1.58425795 14.8512759 3.375 14.75 C4.37273437 14.70359375 5.37046875 14.6571875 6.3984375 14.609375 C9.1526477 14.27839115 9.1526477 14.27839115 10.3515625 11.953125 C10.56554687 11.30859375 10.77953125 10.6640625 11 10 C12.70884005 11.62339805 14.37446717 13.29319053 16 15 C16 15.66 16 16.32 16 17 C11.05 17 6.1 17 1 17 C0.731875 18.27875 0.46375 19.5575 0.1875 20.875 C-0.9451896 26.00062417 -2.43201301 30.99289488 -4 36 C-6.31 34.02 -8.62 32.04 -11 30 C-10 28 -10 28 -8 26 C-7.11221308 24.03511169 -7.11221308 24.03511169 -6.375 21.875 C-6.11460937 21.15054688 -5.85421875 20.42609375 -5.5859375 19.6796875 C-5.39257812 19.12539062 -5.19921875 18.57109375 -5 18 C-9.26047719 21.02505386 -9.26047719 21.02505386 -11.875 25.3125 C-11.91625 25.869375 -11.9575 26.42625 -12 27 C-15.34998521 25.88333826 -15.79340222 25.25305075 -17.6875 22.4375 C-18.34298828 21.47650391 -18.34298828 21.47650391 -19.01171875 20.49609375 C-19.33785156 20.00238281 -19.66398437 19.50867188 -20 19 C-19.10539062 18.76152344 -18.21078125 18.52304688 -17.2890625 18.27734375 C-13.66806016 16.8710875 -11.9983126 15.3851102 -9.375 12.5625 C-5.28497409 8.20698118 -5.28497409 8.20698118 -2.7734375 6.3828125 C-0.73402189 5.07506239 -0.73402189 5.07506239 -0.25 2.3125 C-0.1675 1.549375 -0.085 0.78625 0 0 Z " fill="#F1F1F5" transform="translate(413,115)"/>
<path d="M0 0 C2.64 0 5.28 0 8 0 C7.67 0.66 7.34 1.32 7 2 C7.06454174 4.29416553 7.20183913 6.5864685 7.375 8.875 C7.44835571 9.87188843 7.44835571 9.87188843 7.52319336 10.88891602 C7.67525522 12.92654491 7.83609281 14.96329222 8 17 C8.09667969 18.20785156 8.19335938 19.41570312 8.29296875 20.66015625 C8.52164846 23.44076901 8.75674043 26.22062997 9 29 C6.69458008 29.23242188 6.69458008 29.23242188 4 29 C2.33081055 27.43945312 2.33081055 27.43945312 0.88671875 25.28125 C0.36142578 24.51425781 -0.16386719 23.74726562 -0.70507812 22.95703125 C-1.23552734 22.14621094 -1.76597656 21.33539063 -2.3125 20.5 C-2.86228516 19.68917969 -3.41207031 18.87835938 -3.97851562 18.04296875 C-5.33456593 16.03837265 -6.67389176 14.02447668 -8 12 C-7.9127395 14.25071906 -7.80455885 16.50063388 -7.6875 18.75 C-7.60048828 20.62945312 -7.60048828 20.62945312 -7.51171875 22.546875 C-6.99544099 26.03076463 -6.3746744 27.47889796 -4 30 C-6.97 30.33 -9.94 30.66 -13 31 C-12.34 30.34 -11.68 29.68 -11 29 C-10.42148758 20.61156987 -11.86002128 12.29538084 -13 4 C-13.99 4 -14.98 4 -16 4 C-16 3.34 -16 2.68 -16 2 C-12.87219293 1.49892452 -10.11371893 1.34783224 -7 2 C-4.32416508 4.26263828 -2.70366911 6.99979308 -0.9375 10 C-0.21143555 11.1446875 -0.21143555 11.1446875 0.52929688 12.3125 C1.71599935 14.19242472 2.87002561 16.08563055 4 18 C3.84275285 16.57288303 3.68512691 15.1458078 3.52734375 13.71875 C3.43960693 12.92404297 3.35187012 12.12933594 3.26147461 11.31054688 C2.94402155 8.50534079 2.62019852 5.75643787 2 3 C1.34 2.67 0.68 2.34 0 2 C0 1.34 0 0.68 0 0 Z " fill="#EDEEF3" transform="translate(282,70)"/>
<path d="M0 0 C4.19045222 2.00340345 8.0677517 4.44734474 12.00390625 6.90625 C13.59804457 7.89730466 15.19306665 8.8869395 16.7890625 9.875 C17.49039307 10.31263672 18.19172363 10.75027344 18.91430664 11.20117188 C20.88322091 12.37165975 22.88005691 13.40926129 24.94140625 14.40625 C23.63154352 15.57587686 22.31844365 16.74187944 21.00390625 17.90625 C19.90755859 18.88078125 19.90755859 18.88078125 18.7890625 19.875 C16.94140625 21.40625 16.94140625 21.40625 15.94140625 21.40625 C15.87953125 20.6225 15.81765625 19.83875 15.75390625 19.03125 C15.48578125 18.165 15.21765625 17.29875 14.94140625 16.40625 C12.46504613 15.03158375 12.46504613 15.03158375 9.94140625 14.40625 C8.95140625 15.72625 7.96140625 17.04625 6.94140625 18.40625 C7.58120474 20.43866727 7.58120474 20.43866727 8.94140625 22.40625 C11.49660546 23.21796228 11.49660546 23.21796228 13.94140625 23.40625 C12.32545793 25.44744788 10.65576805 27.44697937 8.94140625 29.40625 C8.28140625 29.40625 7.62140625 29.40625 6.94140625 29.40625 C6.81765625 28.87 6.69390625 28.33375 6.56640625 27.78125 C4.77853315 20.98733221 1.90429614 15.03309948 -1.36523438 8.85351562 C-4.05859375 3.70252851 -4.05859375 3.70252851 -4.05859375 0.40625 C-2.05859375 -0.59375 -2.05859375 -0.59375 0 0 Z " fill="#EFF0F4" transform="translate(187.05859375,114.59375)"/>
<path d="M0 0 C0.12375 1.6396875 0.12375 1.6396875 0.25 3.3125 C0.68940596 7.00482173 1.72156583 10.16131492 3.0625 13.625 C5.80323379 20.88342684 5.80323379 20.88342684 5 25 C3.1329009 27.30275556 1.64352259 28.67823871 -1 30 C-6.78551532 30.55988858 -6.78551532 30.55988858 -9 30 C-13.43201097 25.68528232 -14.88346106 20.32459742 -16.79882812 14.61914062 C-18.35938351 10.06992049 -18.35938351 10.06992049 -22 7 C-22 6.34 -22 5.68 -22 5 C-18.37 4.01 -14.74 3.02 -11 2 C-11 2.66 -11 3.32 -11 4 C-11.66 4 -12.32 4 -13 4 C-10.69 10.93 -8.38 17.86 -6 25 C-1.39467611 26.45314664 -1.39467611 26.45314664 1 25 C0.5993374 17.12030222 -1.4835552 10.08370527 -5 3 C-5.99 2.34 -6.98 1.68 -8 1 C-4.93251126 -0.86240388 -3.40254489 -1.2151946 0 0 Z " fill="#EFEFF4" transform="translate(255,77)"/>
<path d="M0 0 C0.76170685 2.25505318 1.10826447 3.60674522 0.46875 5.9296875 C-2.74842385 12.38998016 -7.25238367 17.17541642 -14 20 C-16.33203812 20.0777346 -18.66839059 20.08967728 -21 20 C-20.73187279 13.96713783 -20.15119848 9.68340341 -16 5 C-10.74930339 0.59919442 -6.78929148 -0.60618674 0 0 Z " fill="#B08829" transform="translate(249,165)"/>
<path d="M0 0 C6.11261902 -0.42155993 9.14727518 -0.11426669 14 4 C18.00129397 7.61709478 20.26477012 10.47121547 20.875 15.9375 C20.94276853 17.29061156 20.99385581 18.64520639 21 20 C14.6259235 20.6639663 10.9679882 18.9869149 6 15 C2.72726361 11.84296641 0.17048494 8.44784278 -1 4 C-0.625 1.6875 -0.625 1.6875 0 0 Z " fill="#B08828" transform="translate(351,165)"/>
<path d="M0 0 C4.75 0.875 4.75 0.875 7 2 C7 2.66 7 3.32 7 4 C5.35 4.33 3.7 4.66 2 5 C2 5.99 2 6.98 2 8 C4.72588833 9.00981089 7.45512264 10.00803308 10.1875 11 C10.95642578 11.28617188 11.72535156 11.57234375 12.51757812 11.8671875 C18.10335941 13.89242258 18.10335941 13.89242258 24 14 C24.66 13.67 25.32 13.34 26 13 C25.33501617 17.38889325 23.81242323 20.9811485 22 25 C21.39297241 24.06837036 21.39297241 24.06837036 20.77368164 23.11791992 C18.78289519 20.74075922 17.51723667 20.1167627 14.62109375 19.11328125 C13.78255859 18.81486328 12.94402344 18.51644531 12.08007812 18.20898438 C11.20802734 17.91314453 10.33597656 17.61730469 9.4375 17.3125 C7.70681557 16.70504123 5.97633668 16.09699643 4.24609375 15.48828125 C3.09645142 15.09443237 3.09645142 15.09443237 1.92358398 14.69262695 C0 14 0 14 -2 13 C-1.65772428 15.97065509 -1.65772428 15.97065509 -1 19 C-0.34 19.33 0.32 19.66 1 20 C1 20.66 1 21.32 1 22 C-1.9375 21.25 -1.9375 21.25 -5 20 C-6.26871495 16.96606377 -5.9704388 15.10886553 -4.78515625 12.109375 C-4.37426758 11.04589844 -4.37426758 11.04589844 -3.95507812 9.9609375 C-3.66052734 9.23132813 -3.36597656 8.50171875 -3.0625 7.75 C-2.77181641 7.00492188 -2.48113281 6.25984375 -2.18164062 5.4921875 C-1.46426278 3.65758186 -0.73342561 1.82824935 0 0 Z " fill="#F0F1F5" transform="translate(143,172)"/>
<path d="M0 0 C1.8125 1.0625 1.8125 1.0625 3.0625 3.1875 C4.70032408 9.46582563 3.86651167 13.73494468 0.98046875 19.36328125 C-0.1875 21.0625 -0.1875 21.0625 -3.1875 23.0625 C-4.1775 23.0625 -5.1675 23.0625 -6.1875 23.0625 C-5.8575 21.0825 -5.5275 19.1025 -5.1875 17.0625 C-6.1775 18.3825 -7.1675 19.7025 -8.1875 21.0625 C-9.1775 20.7325 -10.1675 20.4025 -11.1875 20.0625 C-11.64281951 13.68802681 -10.82167377 9.39026932 -7.1875 4.0625 C-3.31653226 0.09475806 -3.31653226 0.09475806 0 0 Z " fill="#B28B2E" transform="translate(399.1875,193.9375)"/>
<path d="M0 0 C3.83475164 0.21912867 4.94164113 0.94028394 7.6875 3.75 C11.73874361 9.44363967 12.23151274 13.17037429 12 20 C10.68 20 9.36 20 8 20 C7.34 19.34 6.68 18.68 6 18 C6.33 19.65 6.66 21.3 7 23 C4.75 22.875 4.75 22.875 2 22 C-2.15068113 16.69635189 -3.45458015 12.7050572 -3 6 C-1.5 2.5625 -1.5 2.5625 0 0 Z " fill="#B28B2E" transform="translate(200,194)"/>
<path d="M0 0 C4.60588154 2.0784664 8.77089389 5.09816345 12 9 C12 9.66 12 10.32 12 11 C9.69 11 7.38 11 5 11 C6.32 11.66 7.64 12.32 9 13 C8.67 14.32 8.34 15.64 8 17 C2.8837852 17.63952685 -0.0448436 16.28568078 -4.1640625 13.4921875 C-6.85322756 11.30652568 -8.45540981 9.08918039 -10 6 C-10.25 3.125 -10.25 3.125 -10 1 C-6.7468331 -0.62658345 -3.51519676 -0.55503107 0 0 Z " fill="#B28B2E" transform="translate(205,269)"/>
<path d="M0 0 C-0.3553369 5.92228163 -1.75588909 8.85020267 -6 13 C-10.14934998 15.64852127 -13.10150337 16.34989262 -18 16 C-18.33 14.68 -18.66 13.36 -19 12 C-17.68 11.34 -16.36 10.68 -15 10 C-17.31 10 -19.62 10 -22 10 C-20.19923448 5.1379331 -16.22998402 2.51063434 -12.0625 -0.3125 C-7.95668678 -1.68110441 -4.04845631 -1.34948544 0 0 Z " fill="#B28A2D" transform="translate(405,270)"/>
<path d="M0 0 C2.9375 1.5 2.9375 1.5 5 3 C4.9158797 5.86009035 4.43181261 7.54648827 2.4453125 9.6328125 C-2.19241652 13.6162561 -4.69240717 15.22552357 -11.0234375 15.16796875 C-13.37915131 14.96777963 -15.03599056 14.30933963 -17 13 C-16.67 12.01 -16.34 11.02 -16 10 C-14.35 9.67 -12.7 9.34 -11 9 C-13.31 8.67 -15.62 8.34 -18 8 C-16.75698061 4.27094183 -15.80107151 4.03588642 -12.375 2.3125 C-8.04869507 0.2696941 -4.8385169 -0.75898304 0 0 Z " fill="#B18A2C" transform="translate(389,291)"/>
<path d="M0 0 C1.55090815 1.55090815 1.20677311 3.03696233 1.25 5.1875 C1.17029968 10.21659047 0.14463515 13.72920984 -3.39453125 17.4765625 C-6.51307299 20.30298767 -7.68268888 21 -12 21 C-11.49396008 18.83125748 -11.00016187 17.00032373 -10 15 C-10.433125 15.495 -10.86625 15.99 -11.3125 16.5 C-13 18 -13 18 -16 18 C-15.62108903 11.93742448 -13.81183894 7.75409126 -10 3 C-6.64374414 0.31499531 -4.28428777 -0.47603197 0 0 Z " fill="#B1892A" transform="translate(408,219)"/>
<path d="M0 0 C4.12880089 0.15880003 6.4129325 0.53580709 9.6875 3.125 C15.80707395 10.73311897 15.80707395 10.73311897 16.25 15.9375 C16.1675 16.618125 16.085 17.29875 16 18 C13.03824877 17.38722388 11.61941217 16.74627478 9 15 C9.495 15.433125 9.99 15.86625 10.5 16.3125 C12 18 12 18 12 21 C8.84113505 20.92478893 6.69915712 20.62522327 4.30078125 18.48046875 C0.59089206 14.21364704 -1.14379017 11.14358216 -1.125 5.375 C-1.12757813 4.57835937 -1.13015625 3.78171875 -1.1328125 2.9609375 C-1 1 -1 1 0 0 Z " fill="#B1892A" transform="translate(192,219)"/>
<path d="M0 0 C2.8125 1.1875 2.8125 1.1875 5 3 C6 5.5 6 5.5 6 8 C4.5625 9.8125 4.5625 9.8125 3 11 C2.67 8.69 2.34 6.38 2 4 C0.33388095 3.957279 -1.33382885 3.95936168 -3 4 C-3.33 4.33 -3.66 4.66 -4 5 C-3.63252506 10.1761903 -3.63252506 10.1761903 -2 15 C-1.58662012 18.05901114 -1.52888789 20.94589393 -2 24 C-4.0625 26.625 -4.0625 26.625 -7 28 C-12.32412209 28 -15.15483605 26.61212371 -19 23 C-18.67 21.02 -18.34 19.04 -18 17 C-17.34 17 -16.68 17 -16 17 C-15.34 18.98 -14.68 20.96 -14 23 C-12.35 23.33 -10.7 23.66 -9 24 C-7.63843238 18.80128726 -8.57318495 16.6594849 -11 12 C-11.3930186 8.06981402 -11.24254291 5.30480008 -9 2 C-5.4913604 -0.33909307 -4.12910567 -0.41291057 0 0 Z " fill="#EDEEF3" transform="translate(382,91)"/>
<path d="M0 0 C0.99386719 0.00902344 1.98773438 0.01804687 3.01171875 0.02734375 C4.15060547 0.04474609 4.15060547 0.04474609 5.3125 0.0625 C5.6425 1.0525 5.9725 2.0425 6.3125 3.0625 C4.0025 4.3825 1.6925 5.7025 -0.6875 7.0625 C1.9525 6.7325 4.5925 6.4025 7.3125 6.0625 C6.94475772 8.52792713 6.72172938 9.73185082 4.74609375 11.328125 C-0.37417142 13.85318727 -3.9760202 14.70734449 -9.6875 14.0625 C-13.1875 12.5625 -13.1875 12.5625 -15.6875 11.0625 C-15.46331061 7.13918566 -14.72797908 6.10121912 -11.8125 3.3125 C-7.63922066 0.30773887 -5.0126454 -0.0589723 0 0 Z " fill="#B1892A" transform="translate(257.6875,321.9375)"/>
<path d="M0 0 C7.79563087 -0.64485917 12.8801863 -0.06150005 19 5 C21 7 21 7 21 11 C15.98022503 14.08909229 11.75682637 14.90792236 6 14 C3.164603 12.97038656 1.47077539 11.85308154 -1 10 C-1.33 8.68 -1.66 7.36 -2 6 C0.97 6.33 3.94 6.66 7 7 C4.36 5.68 1.72 4.36 -1 3 C-0.67 2.01 -0.34 1.02 0 0 Z " fill="#B1892A" transform="translate(337,322)"/>
<path d="M0 0 C1.90936605 0.95298732 3.77769881 1.98734501 5.63671875 3.03515625 C5.63671875 4.02515625 5.63671875 5.01515625 5.63671875 6.03515625 C3.32671875 6.36515625 1.01671875 6.69515625 -1.36328125 7.03515625 C0.94671875 7.69515625 3.25671875 8.35515625 5.63671875 9.03515625 C5.63671875 9.69515625 5.63671875 10.35515625 5.63671875 11.03515625 C1.92042348 13.51268643 -2.05069642 13.71784342 -6.36328125 13.03515625 C-9.61328125 11.28515625 -9.61328125 11.28515625 -12.36328125 9.03515625 C-13.16765625 8.39578125 -13.97203125 7.75640625 -14.80078125 7.09765625 C-16.36328125 5.03515625 -16.36328125 5.03515625 -16.36328125 2.41015625 C-15.36328125 0.03515625 -15.36328125 0.03515625 -13.56640625 -1.12109375 C-9.08682793 -2.83667694 -4.34618577 -1.7743932 0 0 Z " fill="#B1892A" transform="translate(222.36328125,292.96484375)"/>
<path d="M0 0 C1.22589844 0.01353516 1.22589844 0.01353516 2.4765625 0.02734375 C3.41628906 0.04474609 3.41628906 0.04474609 4.375 0.0625 C4.10618823 6.11076484 3.45676177 10.3004446 -0.625 15.0625 C-4.33222917 17.98925987 -6.95240781 18.3884948 -11.625 18.0625 C-10.75 14.1875 -10.75 14.1875 -9.625 13.0625 C-11.605 13.3925 -13.585 13.7225 -15.625 14.0625 C-14.32477902 8.13927108 -11.09528205 4.88965185 -6.625 1.0625 C-4.21954362 -0.14022819 -2.67503047 -0.03821472 0 0 Z " fill="#B08929" transform="translate(405.625,244.9375)"/>
<path d="M0 0 C4.16335409 -0.60715581 7.58761549 -0.85907924 11.2734375 1.3828125 C14.8810885 4.48083251 17.99856515 7.62186127 20 12 C20 12.66 20 13.32 20 14 C17.03 13.505 17.03 13.505 14 13 C14.66 13.66 15.32 14.32 16 15 C16 15.99 16 16.98 16 18 C12.32196713 18.35028885 10.2364061 18.11347493 6.875 16.5 C2.36833217 12.58115841 0.17660721 8.47250091 -0.25 2.5 C-0.1675 1.675 -0.085 0.85 0 0 Z " fill="#B08929" transform="translate(190,245)"/>
<path d="M0 0 C2.57747082 1.06049783 3.92109314 2.09928515 6 4 C5.43463006 7.27914568 4.6296988 8.93380808 2 11 C-2.43239625 13.47692732 -7.04829143 13.59098149 -12 13 C-15.0625 11.6875 -15.0625 11.6875 -17 10 C-17 9.01 -17 8.02 -17 7 C-15.02 6.67 -13.04 6.34 -11 6 C-12.98 5.34 -14.96 4.68 -17 4 C-17 3.34 -17 2.68 -17 2 C-11.82045416 -1.15825966 -5.85343621 -0.62378626 0 0 Z " fill="#B08828" transform="translate(372,310)"/>
<path d="M0 0 C4.27683498 1.52744106 6.00037651 4.00075302 8 8 C8.69279305 13.28043485 8.54964535 18.21941497 6 23 C5.34 23 4.68 23 4 23 C3.34 21.02 2.68 19.04 2 17 C2 18.98 2 20.96 2 23 C0.68 23 -0.64 23 -2 23 C-5.29977001 17.77536415 -5.91758933 13.02290016 -5 7 C-3.77141875 4.24952757 -2.14153848 2.14153848 0 0 Z " fill="#B08727" transform="translate(214,172)"/>
<path d="M0 0 C2.54563057 0.96558401 3.94635204 1.93868805 5.75 4 C7.80161746 8.92388191 8.14787808 14.19738858 6.09765625 19.203125 C5 21.125 5 21.125 3 24 C2.34 24 1.68 24 1 24 C0.67 21.69 0.34 19.38 0 17 C-0.66 18.98 -1.32 20.96 -2 23 C-2.99 22.67 -3.98 22.34 -5 22 C-6.66183899 17.62673949 -6.54283505 12.5887656 -6 8 C-4.26460898 4.76060344 -2.57678866 2.57678866 0 0 Z " fill="#B08727" transform="translate(384,172)"/>
<path d="M0 0 C1.1240625 0.00386719 2.248125 0.00773437 3.40625 0.01171875 C6.33088934 0.29605869 8.02707449 0.79116593 10.5 2.3125 C10.17 3.3025 9.84 4.2925 9.5 5.3125 C7.4375 6 7.4375 6 5.5 6.3125 C8.47 6.8075 8.47 6.8075 11.5 7.3125 C10.5576731 9.88248247 9.81047705 11.10874944 7.5 12.625 C2.47750258 13.77598899 -2.9514377 13.84063203 -7.48046875 11.125 C-9.125 9.75 -9.125 9.75 -11.5 7.3125 C-11.14520652 4.74024724 -10.73076586 3.5399692 -8.859375 1.6953125 C-5.76221909 -0.11990802 -3.57027365 -0.05322656 0 0 Z " fill="#AF8626" transform="translate(233.5,309.6875)"/>
<path d="M0 0 C0.22300781 0.5671875 0.44601563 1.134375 0.67578125 1.71875 C4.62351239 8.51956117 13.10635384 13.47658085 20 17 C22.4294516 13.3558226 22.16179575 11.28758728 22 7 C23.9375 7.75 23.9375 7.75 26 9 C26.75952148 10.87597656 26.75952148 10.87597656 27 13 C25.43264967 15.42573098 23.89069827 17.54062361 22.0625 19.75 C21.58103516 20.35199219 21.09957031 20.95398438 20.60351562 21.57421875 C19.41364626 23.05861023 18.20826626 24.53054438 17 26 C16.74710205 25.40219727 16.4942041 24.80439453 16.23364258 24.18847656 C14.05045197 20.31550592 10.27384106 18.25474614 6.6875 15.75 C5.92759766 15.19570312 5.16769531 14.64140625 4.38476562 14.0703125 C3.64291016 13.54695312 2.90105469 13.02359375 2.13671875 12.484375 C1.46342529 12.00709961 0.79013184 11.52982422 0.09643555 11.03808594 C-2.41902687 9.79251167 -4.22843371 9.8080039 -7 10 C-6.02223933 8.51990357 -5.0427506 7.04094856 -4.0625 5.5625 C-3.51722656 4.73878906 -2.97195312 3.91507813 -2.41015625 3.06640625 C-1 1 -1 1 0 0 Z " fill="#F0F0F5" transform="translate(164,137)"/>
<path d="M0 0 C2.74792483 3.40219265 6 7.48464588 6 12 C5.34 12 4.68 12 4 12 C3.67 12.66 3.34 13.32 3 14 C2.67 12.68 2.34 11.36 2 10 C-1.02419525 10.58803797 -4.01758453 11.22678118 -7 12 C-7.33 13.32 -7.66 14.64 -8 16 C-8.33 15.34 -8.66 14.68 -9 14 C-10.62974564 14.76074843 -12.25366648 15.53398433 -13.875 16.3125 C-14.77992188 16.74175781 -15.68484375 17.17101562 -16.6171875 17.61328125 C-19.26449476 18.9199388 -19.26449476 18.9199388 -21 22 C-21.69965443 20.73581754 -22.38434763 19.46334598 -23.0625 18.1875 C-23.44535156 17.47980469 -23.82820313 16.77210938 -24.22265625 16.04296875 C-25 14 -25 14 -24 11 C-23.18015625 11.0825 -22.3603125 11.165 -21.515625 11.25 C-16.89994186 10.92177364 -13.76767067 9.17807787 -9.75 7 C-2.20945946 3 -2.20945946 3 0 3 C0 2.01 0 1.02 0 0 Z " fill="#F0F1F5" transform="translate(446,157)"/>
<path d="M0 0 C3.63 1.32 7.26 2.64 11 4 C11 4.66 11 5.32 11 6 C9.68 6 8.36 6 7 6 C6.58621094 7.30130859 6.58621094 7.30130859 6.1640625 8.62890625 C5.05860343 11.83028605 3.76248871 14.85013477 2.375 17.9375 C0.38605438 22.62114614 -0.57304564 25.95719838 0 31 C-1.46067199 30.54917531 -2.91848032 30.08906463 -4.375 29.625 C-5.18710937 29.36976562 -5.99921875 29.11453125 -6.8359375 28.8515625 C-9 28 -9 28 -11 26 C-10.06945801 25.61847778 -10.06945801 25.61847778 -9.12011719 25.22924805 C-6.65394532 23.79935683 -6.15285883 22.92570102 -5.078125 20.33203125 C-4.77519531 19.60306641 -4.47226562 18.87410156 -4.16015625 18.12304688 C-3.85980469 17.36056641 -3.55945313 16.59808594 -3.25 15.8125 C-2.93417969 15.06935547 -2.61835938 14.32621094 -2.29296875 13.56054688 C-0.36910689 8.80919108 0.35257578 5.11912907 0 0 Z " fill="#EEEFF3" transform="translate(357,80)"/>
<path d="M0 0 C3.3 0.33 6.6 0.66 10 1 C9.01 2.32 8.02 3.64 7 5 C6.23454217 7.59237881 6.23454217 7.59237881 5.83203125 10.421875 C5.66123047 11.44667969 5.49042969 12.47148438 5.31445312 13.52734375 C5.14880859 14.59082031 4.98316406 15.65429688 4.8125 16.75 C4.63525391 17.82894531 4.45800781 18.90789062 4.27539062 20.01953125 C3.84011924 22.6782159 3.41539832 25.33815042 3 28 C3.66 28.33 4.32 28.66 5 29 C3.18674449 28.88648483 1.37436643 28.75887039 -0.4375 28.625 C-1.44683594 28.55539063 -2.45617187 28.48578125 -3.49609375 28.4140625 C-4.32238281 28.27742188 -5.14867187 28.14078125 -6 28 C-6.33 27.34 -6.66 26.68 -7 26 C-6.01 25.67 -5.02 25.34 -4 25 C-3.21168235 23.18666364 -3.21168235 23.18666364 -2.83203125 20.96484375 C-2.66123047 20.15595703 -2.49042969 19.34707031 -2.31445312 18.51367188 C-2.14880859 17.66353516 -1.98316406 16.81339844 -1.8125 15.9375 C-1.63525391 15.08349609 -1.45800781 14.22949219 -1.27539062 13.34960938 C-0.8383941 11.23549105 -0.41766794 9.11802166 0 7 C-0.99 7.33 -1.98 7.66 -3 8 C-1.125 2.25 -1.125 2.25 0 0 Z " fill="#F4F5F8" transform="translate(337,75)"/>
<path d="M0 0 C3.81684226 1.55500981 6.19195732 4.03595495 9 7 C8.29359375 7.35320312 7.5871875 7.70640625 6.859375 8.0703125 C3.22295017 10.52440248 0.9101963 13.42606625 -1.75 16.875 C-2.24371094 17.48730469 -2.73742187 18.09960938 -3.24609375 18.73046875 C-5.8669425 22.08371906 -7.63377192 24.62190982 -8 29 C-14.75 25.375 -14.75 25.375 -17 22 C-16.28199219 21.79761719 -15.56398438 21.59523438 -14.82421875 21.38671875 C-11.17035957 19.59263852 -9.18975956 17.00255935 -6.8125 13.8125 C-6.37486328 13.26013672 -5.93722656 12.70777344 -5.48632812 12.13867188 C-2.50639973 8.22154462 -1.0912421 4.79780745 0 0 Z " fill="#F0F0F4" transform="translate(397,102)"/>
<path d="M0 0 C3.39417765 3.12621626 5.6062718 5.56541027 7 10 C5.77023437 10.08121094 5.77023437 10.08121094 4.515625 10.1640625 C-0.17530761 11.27946203 -3.36492032 13.59994308 -7.25 16.375 C-7.96929687 16.87 -8.68859375 17.365 -9.4296875 17.875 C-12.64937319 20.12998586 -14.78591824 21.67887736 -17 25 C-18.98 22.03 -20.96 19.06 -23 16 C-21.35 16 -19.7 16 -18 16 C-15.04450177 14.62825432 -12.47208461 12.68744698 -9.8125 10.8125 C-9.08869141 10.32974609 -8.36488281 9.84699219 -7.61914062 9.34960938 C-3.75467999 6.67144829 -1.14851988 4.79572806 0 0 Z " fill="#F1F1F5" transform="translate(434,139)"/>
<path d="M0 0 C2.34996759 0.93998703 3.72650118 1.5778398 5.12109375 3.73046875 C6.1838983 6.47486627 6.23145154 8.62573782 6.1875 11.5625 C6.17783203 12.98755859 6.17783203 12.98755859 6.16796875 14.44140625 C6 17 6 17 5 20 C4.01 19.67 3.02 19.34 2 19 C1.67 19.66 1.34 20.32 1 21 C-1.86005251 20.7041325 -2.85571743 20.15920836 -4.8125 18 C-6.48654703 13.77082857 -6.28771659 10.34318613 -5 6 C-3.52801996 3.63517961 -1.98925929 1.98925929 0 0 Z " fill="#B48D32" transform="translate(248,288)"/>
<path d="M0 0 C0.66 0 1.32 0 2 0 C2 1.32 2 2.64 2 4 C2.69222656 4.25523437 3.38445312 4.51046875 4.09765625 4.7734375 C8.52433241 6.6441997 12.59046162 9.1349778 16.74609375 11.5390625 C20.15309947 13.06873854 22.31569485 13.30007915 26 13 C24.66511872 16.59391114 23.03977277 19.75490696 21 23 C20.3296875 22.26394531 19.659375 21.52789062 18.96875 20.76953125 C15.85525843 17.66152118 12.37652731 15.71020286 8.5 13.6875 C7.84902344 13.32849609 7.19804687 12.96949219 6.52734375 12.59960938 C2.88746502 10.66937066 0.1407321 9.53018617 -4 10 C-2.8905928 6.51329166 -1.73662334 3.22515763 0 0 Z " fill="#F2F2F6" transform="translate(152,154)"/>
<path d="M0 0 C5.66176471 2.98529412 5.66176471 2.98529412 7 7 C5.68 7.33 4.36 7.66 3 8 C3.66 8.33 4.32 8.66 5 9 C5 9.66 5 10.32 5 11 C0.35296775 12.54901075 -4.53420369 13.02853799 -9.14453125 11.10546875 C-10.80905265 10.14608065 -12.4119273 9.08124099 -14 8 C-13.73593684 4.74322102 -13.43253722 3.38010847 -10.9375 1.1875 C-7.21117024 -0.31888863 -3.92935869 -0.70605664 0 0 Z " fill="#B38C2F" transform="translate(370,191)"/>
<path d="M0 0 C2.31049784 1.11156304 3.97849628 2.38279702 6 4 C5.875 6.3125 5.875 6.3125 5 9 C0.11038272 12.63586926 -5.14611194 12.54748593 -11 12 C-11.66 11.67 -12.32 11.34 -13 11 C-12.67 10.01 -12.34 9.02 -12 8 C-12.99 7.01 -13.98 6.02 -15 5 C-9.93483479 0.86789154 -6.68730328 -0.95355991 0 0 Z " fill="#B38C2F" transform="translate(238,191)"/>
<path d="M0 0 C2.25 0.0625 2.25 0.0625 5 1 C7.54101819 4.50248453 8.8070564 6.81822043 9.5 11.0625 C8.85431783 14.85588275 7.4495499 17.06054012 5 20 C4.01 20 3.02 20 2 20 C1.67 19.34 1.34 18.68 1 18 C0.01 18.33 -0.98 18.66 -2 19 C-3.85966547 13.4210036 -4.01385245 7.15443645 -1.5 1.8125 C-1.005 1.214375 -0.51 0.61625 0 0 Z " fill="#B38D31" transform="translate(349,289)"/>
<path d="M0 0 C2.36550548 3.69610231 2.42493712 6.67980593 2 11 C0.86291068 14.10474823 -0.50337124 17.05351213 -2 20 C-2.66 20 -3.32 20 -4 20 C-4.33 18.02 -4.66 16.04 -5 14 C-5.66 15.98 -6.32 17.96 -7 20 C-7.99 19.67 -8.98 19.34 -10 19 C-11.60725691 15.78548618 -11.47397924 12.48666924 -11 9 C-8.45309609 4.17907474 -5.7714645 0 0 0 Z " fill="#B28B2E" transform="translate(240,275)"/>
<path d="M0 0 C0.40669345 6.7782241 -0.10416326 11.38020407 -4.5 16.875 C-6 18 -6 18 -9 18 C-9 17.01 -9 16.02 -9 15 C-9.99 16.485 -9.99 16.485 -11 18 C-11.99 17.67 -12.98 17.34 -14 17 C-14.41813284 10.93707386 -14.13274522 7.80292012 -10 3 C-6.58163714 0.37049011 -4.29412301 -0.36806769 0 0 Z " fill="#B28B2D" transform="translate(233,260)"/>
<path d="M0 0 C4.29574113 0.25269065 6.47518229 0.5568206 9.8125 3.375 C14.03008068 8.43609681 14.20826077 10.64804641 14 17 C13.01 17.33 12.02 17.66 11 18 C10.01 16.68 9.02 15.36 8 14 C8.33 15.32 8.66 16.64 9 18 C5.87018088 17.66466224 4.99938841 16.99933599 2.8125 14.625 C0.35393226 11.06431568 -0.12369237 8.53477327 -0.0625 4.3125 C-0.05347656 3.50425781 -0.04445313 2.69601562 -0.03515625 1.86328125 C-0.02355469 1.24839844 -0.01195312 0.63351562 0 0 Z " fill="#B18A2C" transform="translate(367,260)"/>
<path d="M0 0 C5.04951318 2.06570994 7.54457646 4.08915291 10 9 C10.4430704 13.28301385 10.34728069 16.33237392 8 20 C7.34 20 6.68 20 6 20 C5.34 18.02 4.68 16.04 4 14 C3.67 15.98 3.34 17.96 3 20 C2.34 20 1.68 20 1 20 C-1.73680304 14.61191902 -3.85003982 10.19314723 -3 4 C-1.5 1.5625 -1.5 1.5625 0 0 Z " fill="#B18A2C" transform="translate(361,275)"/>
<path d="M0 0 C4.5029995 0.36909832 6.37996905 1.42605352 9.8125 4.3125 C12.73925987 8.01972917 13.1384948 10.63990781 12.8125 15.3125 C9.85840299 13.94095496 7.37241624 12.32386276 4.8125 10.3125 C5.3075 10.910625 5.8025 11.50875 6.3125 12.125 C7.8125 14.3125 7.8125 14.3125 7.8125 17.3125 C2.63704603 15.94252689 -0.39846298 12.7306888 -3.1875 8.3125 C-4.125 4.4375 -4.125 4.4375 -4.1875 1.3125 C-3.1875 0.3125 -3.1875 0.3125 0 0 Z " fill="#B1892B" transform="translate(374.1875,242.6875)"/>
<path d="M0 0 C1.22589844 0.15275391 1.22589844 0.15275391 2.4765625 0.30859375 C3.41628906 0.43427734 3.41628906 0.43427734 4.375 0.5625 C4.705 1.5525 5.035 2.5425 5.375 3.5625 C3.019992 7.81962985 0.50552152 10.96891672 -3.625 13.5625 C-7.4375 14.3125 -7.4375 14.3125 -10.625 14.5625 C-8.75 10.6875 -8.75 10.6875 -7.625 9.5625 C-9.605 10.2225 -11.585 10.8825 -13.625 11.5625 C-13.48710108 8.59767326 -13.33555664 6.35015516 -11.29296875 4.0859375 C-7.21921658 0.69609993 -5.18286318 -0.66636812 0 0 Z " fill="#B1892B" transform="translate(225.625,225.4375)"/>
<path d="M0 0 C1.02536478 3.16930932 1.08605192 4.74722248 0 7.9375 C-2.44554124 11.68223502 -5.29807884 14.48447767 -9 17 C-9.66 17 -10.32 17 -11 17 C-10.45276317 13.62537285 -9.9451 11.91765 -8 9 C-8.40992188 9.433125 -8.81984375 9.86625 -9.2421875 10.3125 C-9.78101563 10.869375 -10.31984375 11.42625 -10.875 12 C-11.40867188 12.556875 -11.94234375 13.11375 -12.4921875 13.6875 C-14 15 -14 15 -16 15 C-16.50464541 9.70122324 -15.36521927 7.09283425 -12 3 C-8.05062318 -0.20219742 -4.99834992 -0.29402058 0 0 Z " fill="#B1892A" transform="translate(229,243)"/>
<path d="M0 0 C2.82512243 1.57449504 5.07966897 3.38656936 7 6 C7 6.99 7 7.98 7 9 C4.03 8.505 4.03 8.505 1 8 C1.99 8.66 2.98 9.32 4 10 C4 10.99 4 11.98 4 13 C-3.21157864 12.67948539 -7.74155286 11.25844714 -13 6 C-12.75 3.4375 -12.75 3.4375 -12 1 C-8.24014859 -0.87992571 -4.08351059 -0.65725655 0 0 Z " fill="#B1892A" transform="translate(378,208)"/>
<path d="M0 0 C3.89010775 1.02057341 5.61195391 2.5854208 8.29296875 5.6015625 C9.16796875 8.9140625 9.16796875 8.9140625 9.29296875 11.6015625 C8.52984375 11.2921875 7.76671875 10.9828125 6.98046875 10.6640625 C5.10507198 9.92262657 3.20612223 9.23928033 1.29296875 8.6015625 C2.11796875 9.2203125 2.94296875 9.8390625 3.79296875 10.4765625 C4.61796875 11.1778125 5.44296875 11.8790625 6.29296875 12.6015625 C6.29296875 13.2615625 6.29296875 13.9215625 6.29296875 14.6015625 C0.75835294 14.37565981 -2.18867653 13.07245488 -6.26171875 9.30078125 C-8.26664404 6.94363936 -9.06445008 4.60027464 -9.70703125 1.6015625 C-5.97021663 -0.88964725 -4.29407992 -0.60243209 0 0 Z " fill="#B1892A" transform="translate(378.70703125,225.3984375)"/>
<path d="M0 0 C2.2734375 1.02734375 2.2734375 1.02734375 4 2 C3.71349017 5.43811794 3.26566773 6.74171193 0.75 9.1875 C-3.97814904 12.30378005 -7.31693855 13.26432844 -13 13 C-13 12.01 -13 11.02 -13 10 C-10.5 8.3125 -10.5 8.3125 -8 7 C-9.1446875 7.495 -9.1446875 7.495 -10.3125 8 C-13 9 -13 9 -16 9 C-15.76066439 5.7689692 -14.72646062 4.69910669 -12.5 2.25 C-8.6680102 -0.75820456 -4.68522607 -0.80926632 0 0 Z " fill="#B08828" transform="translate(231,208)"/>
<path d="M0 0 C2.25 0.0625 2.25 0.0625 5 1 C9.34446663 6.51864681 9.49685256 11.1406744 9 18 C6 17 6 17 4.8125 14.9375 C4.544375 14.298125 4.27625 13.65875 4 13 C4.33 15.31 4.66 17.62 5 20 C1.75110346 19.76793596 0.94435756 18.93662944 -1.25 16.4375 C-3.50021593 12.017433 -3.54594466 9.91350192 -3 5 C-1.5 2 -1.5 2 0 0 Z " fill="#AF8625" transform="translate(261,299)"/>
<path d="M0 0 C2 0.8125 2 0.8125 3.25 2.375 C4.87238565 7.64775336 4.70527694 11.42713459 2.25 16.25 C0.05564244 18.74912944 -0.75110346 19.58043596 -4 19.8125 C-3.67 17.1725 -3.34 14.5325 -3 11.8125 C-3.99 13.7925 -4.98 15.7725 -6 17.8125 C-6.66 17.8125 -7.32 17.8125 -8 17.8125 C-8.50350402 10.86134731 -8.13500456 6.52853571 -4 0.8125 C-2 -0.1875 -2 -0.1875 0 0 Z " fill="#AF8625" transform="translate(338,299.1875)"/>
<path d="M0 0 C2.14553377 3.21830065 2.29583868 4.26786507 2.3125 8 C2.32925781 8.86625 2.34601563 9.7325 2.36328125 10.625 C2 13 2 13 0.66796875 14.78515625 C-1.94493362 16.68823034 -3.87280159 16.45604977 -7 16 C-8.875 14.5625 -8.875 14.5625 -10 12 C-10.99526775 4.34196762 -10.99526775 4.34196762 -8.69921875 1.24609375 C-5.88213204 -0.81976984 -3.35474661 -0.36597236 0 0 Z " fill="#B18A2C" transform="translate(156,232)"/>
<path d="M0 0 C1.32 0.33 2.64 0.66 4 1 C4 10.9 4 20.8 4 31 C2.68 31 1.36 31 0 31 C0 20.77 0 10.54 0 0 Z " fill="#F3F3F7" transform="translate(304,319)"/>
<path d="M0 0 C0.99 0 1.98 0 3 0 C3 10.23 3 20.46 3 31 C1.68 31 0.36 31 -1 31 C-1.02465622 26.74585377 -1.04283899 22.49174502 -1.05493164 18.23754883 C-1.05997101 16.78929927 -1.06680253 15.34105483 -1.07543945 13.89282227 C-1.08752247 11.81525412 -1.09323211 9.73775303 -1.09765625 7.66015625 C-1.10289307 6.40855713 -1.10812988 5.15695801 -1.11352539 3.86743164 C-1 1 -1 1 0 0 Z " fill="#F3F3F6" transform="translate(286,319)"/>
<path d="M0 0 C3.3 0 6.6 0 10 0 C10 0.99 10 1.98 10 3 C7.69 3 5.38 3 3 3 C3 3.99 3 4.98 3 6 C3.763125 5.79375 4.52625 5.5875 5.3125 5.375 C8 5 8 5 11 7 C11.3125 10.5 11.3125 10.5 11 14 C9 16 9 16 5.375 16.125 C4.26125 16.08375 3.1475 16.0425 2 16 C1.34 14.68 0.68 13.36 0 12 C2.31 12 4.62 12 7 12 C7 11.01 7 10.02 7 9 C4.69 9.33 2.38 9.66 0 10 C0 6.7 0 3.4 0 0 Z " fill="#B28B2D" transform="translate(458,231)"/>
<path d="M0 0 C2.31 0.33 4.62 0.66 7 1 C8.23887548 3.47775095 8.16741669 5.23653707 8.1875 8 C8.20167969 8.886875 8.21585937 9.77375 8.23046875 10.6875 C8 13 8 13 6 15 C4.02 15 2.04 15 0 15 C0 10.05 0 5.1 0 0 Z " fill="#E9E9EF" transform="translate(305,387)"/>
<path d="M0 0 C3.5625 0.1875 3.5625 0.1875 5.5625 2.1875 C6 4.5 6 4.5 5.5625 7.1875 C3.0625 10 3.0625 10 0.5625 12.1875 C2.2125 12.5175 3.8625 12.8475 5.5625 13.1875 C5.5625 14.1775 5.5625 15.1675 5.5625 16.1875 C1.9325 16.1875 -1.6975 16.1875 -5.4375 16.1875 C-4.29824595 11.63048382 -2.44083113 9.71641408 0.5625 6.1875 C0.8925 5.1975 1.2225 4.2075 1.5625 3.1875 C0.5725 3.1875 -0.4175 3.1875 -1.4375 3.1875 C-1.4375 3.8475 -1.4375 4.5075 -1.4375 5.1875 C-2.7575 5.1875 -4.0775 5.1875 -5.4375 5.1875 C-4.31932898 0.23559976 -4.31932898 0.23559976 0 0 Z " fill="#B28B2F" transform="translate(134.4375,231.8125)"/>
<path d="M0 0 C0.66 0.66 1.32 1.32 2 2 C1.66302652 8.17784711 1.66302652 8.17784711 -0.5625 10.9375 C-1.036875 11.288125 -1.51125 11.63875 -2 12 C-0.68 12.33 0.64 12.66 2 13 C2 13.99 2 14.98 2 16 C-1.63 16 -5.26 16 -9 16 C-7.8504321 11.40172839 -6.26868812 10.26868812 -3 7 C-2.13880866 4.82653432 -2.13880866 4.82653432 -2 3 C-2.99 3 -3.98 3 -5 3 C-5 3.66 -5 4.32 -5 5 C-6.32 5 -7.64 5 -9 5 C-8.625 3.0625 -8.625 3.0625 -8 1 C-5.23749964 -0.38125018 -3.05268901 -0.19079306 0 0 Z " fill="#B1892B" transform="translate(449,231)"/>
<path d="M0 0 C2.82116842 0 4.44773809 0.45650415 6.4765625 2.453125 C8.80693372 5.44745674 10.05989398 7.06166105 9.8125 10.9375 C9.544375 11.618125 9.27625 12.29875 9 13 C7.35 13.33 5.7 13.66 4 14 C-2.02058009 6.96726441 -2.02058009 6.96726441 -1.9375 3.0625 C-1 1 -1 1 0 0 Z " fill="#E9EAF0" transform="translate(392,355)"/>
<path d="M0 0 C1.796875 0.7265625 1.796875 0.7265625 2.796875 1.7265625 C3.09375 4.078125 3.09375 4.078125 2.796875 6.7265625 C1.1875 8.5625 1.1875 8.5625 -0.953125 10.1015625 C-1.64921875 10.62492187 -2.3453125 11.14828125 -3.0625 11.6875 C-5.203125 12.7265625 -5.203125 12.7265625 -7.40625 12.453125 C-9.203125 11.7265625 -9.203125 11.7265625 -10.203125 10.7265625 C-10.5 8.375 -10.5 8.375 -10.203125 5.7265625 C-8.59375 3.890625 -8.59375 3.890625 -6.453125 2.3515625 C-5.75703125 1.82820313 -5.0609375 1.30484375 -4.34375 0.765625 C-2.203125 -0.2734375 -2.203125 -0.2734375 0 0 Z " fill="#CCCEDC" transform="translate(180.203125,328.2734375)"/>
<path d="M0 0 C0.66 0 1.32 0 2 0 C1.67 2.31 1.34 4.62 1 7 C1.45375 6.34 1.9075 5.68 2.375 5 C2.91125 4.34 3.4475 3.68 4 3 C4.66 3 5.32 3 6 3 C5.67 4.98 5.34 6.96 5 9 C5.433125 8.34 5.86625 7.68 6.3125 7 C6.869375 6.34 7.42625 5.68 8 5 C8.99 5 9.98 5 11 5 C9.55575365 8.23861303 7.74227753 10.61969163 5.375 13.25 C4.74335938 13.95640625 4.11171875 14.6628125 3.4609375 15.390625 C2.73777344 16.18726563 2.73777344 16.18726563 2 17 C1.34 16.67 0.68 16.34 0 16 C0 14.68 0 13.36 0 12 C-0.33 12.66 -0.66 13.32 -1 14 C-1.99 14 -2.98 14 -4 14 C-3.46148032 8.72250715 -2.22656164 4.74354436 0 0 Z " fill="#DDDEE7" transform="translate(218,364)"/>
<path d="M0 0 C0.12375 1.6396875 0.12375 1.6396875 0.25 3.3125 C0.68940596 7.00482173 1.72156583 10.16131492 3.0625 13.625 C5.80323379 20.88342684 5.80323379 20.88342684 5 25 C2.76793569 27.84780619 1.45007001 28.84997666 -2 30 C-1.625 28.0625 -1.625 28.0625 -1 26 C-0.34 25.67 0.32 25.34 1 25 C0.5993374 17.12030222 -1.4835552 10.08370527 -5 3 C-5.99 2.34 -6.98 1.68 -8 1 C-4.93251126 -0.86240388 -3.40254489 -1.2151946 0 0 Z " fill="#E8E9EF" transform="translate(255,77)"/>
<path d="M0 0 C3.70459033 0.75991597 4.94784755 1.93686809 7.375 4.875 C9 8 9 8 9.0625 10.25 C7.54310497 12.75253298 5.72850156 13.16046106 3 14 C2.18071114 12.75443908 1.36984814 11.50333365 0.5625 10.25 C0.11003906 9.55390625 -0.34242188 8.8578125 -0.80859375 8.140625 C-1.9608009 6.07042986 -2.54676982 4.31303676 -3 2 C-2.01 1.34 -1.02 0.68 0 0 Z " fill="#1A2162" transform="translate(212,93)"/>
<path d="M0 0 C0.99 0 1.98 0 3 0 C3 10.23 3 20.46 3 31 C2.01 31 1.02 31 0 31 C0 20.77 0 10.54 0 0 Z " fill="#FEFEFE" transform="translate(295,319)"/>
<path d="M0 0 C3.58199256 1.22113383 6.51567932 2.97154037 9.75 4.9375 C9.75 5.9275 9.75 6.9175 9.75 7.9375 C7.77 7.2775 5.79 6.6175 3.75 5.9375 C4.08 6.9275 4.41 7.9175 4.75 8.9375 C5.41 9.2675 6.07 9.5975 6.75 9.9375 C6.42 10.9275 6.09 11.9175 5.75 12.9375 C4.09545241 12.03665739 2.4515598 11.11622392 0.8125 10.1875 C-0.10402344 9.67703125 -1.02054687 9.1665625 -1.96484375 8.640625 C-4.25 6.9375 -4.25 6.9375 -5.13671875 4.84765625 C-5.25 2.9375 -5.25 2.9375 -4.125 1.125 C-2.25 -0.0625 -2.25 -0.0625 0 0 Z " fill="#DEDFE8" transform="translate(432.25,313.0625)"/>
<path d="M0 0 C5.875 0.875 5.875 0.875 7 2 C6.93579251 3.62853535 6.7987936 5.25449212 6.625 6.875 C6.53476562 7.75929688 6.44453125 8.64359375 6.3515625 9.5546875 C6 12 6 12 5 15 C4.34 15 3.68 15 3 15 C3 12.69 3 10.38 3 8 C2.01 8 1.02 8 0 8 C-0.33 9.98 -0.66 11.96 -1 14 C-1.66 14 -2.32 14 -3 14 C-2.40380045 9.13103697 -1.43023178 4.67209049 0 0 Z " fill="#E4E5EC" transform="translate(254,381)"/>
<path d="M0 0 C4.06153846 6.27692308 4.06153846 6.27692308 3.75 9.9375 C3.5025 10.618125 3.255 11.29875 3 12 C0.8125 12.4375 0.8125 12.4375 -2 12 C-4.10974021 9.92922597 -5.78598646 7.69973487 -7 5 C-5.64703851 0.94111554 -4.27479763 0 0 0 Z " fill="#0D1559" transform="translate(224,106)"/>
<path d="M0 0 C0.99 0.33 1.98 0.66 3 1 C2.58846263 5.97093824 2.20399168 10.44508386 0 15 C-0.66 15 -1.32 15 -2 15 C-2.33 14.34 -2.66 13.68 -3 13 C-4.32 13 -5.64 13 -7 13 C-5.35821735 8.22390502 -2.73453298 4.20617096 0 0 Z " fill="#E2E3EB" transform="translate(239,375)"/>
<path d="M0 0 C0.99 0.33 1.98 0.66 3 1 C2.45823983 3.34762739 1.80854212 5.49553804 0.9375 7.75 C-0.30060967 12.04211352 -1.06949705 16.8610059 1 21 C-1.97 20.67 -4.94 20.34 -8 20 C-8 19.34 -8 18.68 -8 18 C-7.01 18 -6.02 18 -5 18 C-4.80664062 16.95199219 -4.61328125 15.90398437 -4.4140625 14.82421875 C-4.15140066 13.44524407 -3.88836 12.06634151 -3.625 10.6875 C-3.49867188 9.99720703 -3.37234375 9.30691406 -3.2421875 8.59570312 C-2.57885682 5.16296686 -1.96502361 2.94753542 0 0 Z " fill="#E6E7EE" transform="translate(320,79)"/>
<path d="M0 0 C2.4375 0.375 2.4375 0.375 4.4375 2.375 C4.5625 4.8125 4.5625 4.8125 4.4375 7.375 C4.27938612 10.42770463 4.27938612 10.42770463 5.4375 13.375 C2.22225695 11.96655282 0.11566132 10.27155214 -2.3125 7.75 C-2.92609375 7.11835938 -3.5396875 6.48671875 -4.171875 5.8359375 C-4.86023438 5.11277344 -4.86023438 5.11277344 -5.5625 4.375 C-3.24697412 0.47516694 -3.24697412 0.47516694 0 0 Z " fill="#A0A3BE" transform="translate(408.5625,342.625)"/>
<path d="M0 0 C2.4375 0.1875 2.4375 0.1875 3.4375 1.1875 C3.47813832 2.85367115 3.480221 4.52138095 3.4375 6.1875 C2.4475 6.5175 1.4575 6.8475 0.4375 7.1875 C0.4375 5.8675 0.4375 4.5475 0.4375 3.1875 C-0.2225 2.8575 -0.8825 2.5275 -1.5625 2.1875 C-1.52125 3.115625 -1.48 4.04375 -1.4375 5 C-1.5625 8.1875 -1.5625 8.1875 -3.5625 11.1875 C-6.0625 11.5 -6.0625 11.5 -8.5625 11.1875 C-9.2225 10.5275 -9.8825 9.8675 -10.5625 9.1875 C-10.1875 6.5625 -10.1875 6.5625 -9.5625 4.1875 C-8.5725 4.1875 -7.5825 4.1875 -6.5625 4.1875 C-6.8925 5.8375 -7.2225 7.4875 -7.5625 9.1875 C-6.5725 9.1875 -5.5825 9.1875 -4.5625 9.1875 C-4.60375 8.07375 -4.645 6.96 -4.6875 5.8125 C-4.54401352 1.6513922 -4.29839149 0.31451645 0 0 Z " fill="#CBCDDB" transform="translate(168.5625,312.8125)"/>
<path d="M0 0 C2.31 0.33 4.62 0.66 7 1 C7 1.66 7 2.32 7 3 C5.35 3 3.7 3 2 3 C2 3.99 2 4.98 2 6 C2.99 6.33 3.98 6.66 5 7 C5 7.66 5 8.32 5 9 C3.68 9 2.36 9 1 9 C1 10.32 1 11.64 1 13 C2.32 13 3.64 13 5 13 C5 13.66 5 14.32 5 15 C2.69 15 0.38 15 -2 15 C-1.85816304 13.24967156 -1.71136571 11.49974466 -1.5625 9.75 C-1.48128906 8.77546875 -1.40007812 7.8009375 -1.31640625 6.796875 C-1.04925416 4.43538247 -0.64628032 2.28098935 0 0 Z " fill="#D1D3DF" transform="translate(273,385)"/>
<path d="M0 0 C0 0.99 0 1.98 0 3 C-0.99 3.66 -1.98 4.32 -3 5 C-3 5.66 -3 6.32 -3 7 C-1.35 6.67 0.3 6.34 2 6 C2 6.66 2 7.32 2 8 C1.01 8.495 1.01 8.495 0 9 C0.33 9.99 0.66 10.98 1 12 C2.32 11.67 3.64 11.34 5 11 C5 11.99 5 12.98 5 14 C3.02 14.66 1.04 15.32 -1 16 C-2.98 12.04 -4.96 8.08 -7 4 C-3 0 -3 0 0 0 Z " fill="#E3E4EC" transform="translate(365,373)"/>
<path d="M0 0 C0.66 0 1.32 0 2 0 C1.67 1.65 1.34 3.3 1 5 C1.66 5.33 2.32 5.66 3 6 C3.33 5.34 3.66 4.68 4 4 C4.99 4.33 5.98 4.66 7 5 C6.67 6.32 6.34 7.64 6 9 C7.98 8.67 9.96 8.34 12 8 C10.6875 10.5 10.6875 10.5 9 13 C5.19654123 13 4.22298985 11.86213669 1.3125 9.5 C0.50425781 8.8503125 -0.30398438 8.200625 -1.13671875 7.53125 C-1.75160156 7.0259375 -2.36648438 6.520625 -3 6 C-1.125 1.125 -1.125 1.125 0 0 Z " fill="#DEDFE8" transform="translate(419,328)"/>
<path d="M0 0 C0.66 0 1.32 0 2 0 C4.29612756 9.41002278 4.29612756 9.41002278 4 14 C3.01 14.33 2.02 14.66 1 15 C-0.00508801 13.21118264 -1.00392736 11.41885304 -2 9.625 C-2.8353125 8.12839844 -2.8353125 8.12839844 -3.6875 6.6015625 C-5 4 -5 4 -5 2 C-2 3 -2 3 -0.8125 5.0625 C-0.544375 5.701875 -0.27625 6.34125 0 7 C0 4.69 0 2.38 0 0 Z " fill="#E3E4EC" transform="translate(346,380)"/>
<path d="M0 0 C1.98 0 3.96 0 6 0 C6 0.66 6 1.32 6 2 C5.01 2.495 5.01 2.495 4 3 C3.67 3.99 3.34 4.98 3 6 C4.32 6 5.64 6 7 6 C7 6.66 7 7.32 7 8 C5.68 8 4.36 8 3 8 C3.33 8.99 3.66 9.98 4 11 C6.01508358 11.73323796 6.01508358 11.73323796 8 12 C8 12.66 8 13.32 8 14 C6.02 14.33 4.04 14.66 2 15 C1.66048381 13.43883181 1.32867456 11.87598662 1 10.3125 C0.814375 9.44238281 0.62875 8.57226562 0.4375 7.67578125 C0.01027953 5.06287036 -0.07616201 2.64186962 0 0 Z " fill="#EDEEF3" transform="translate(324,385)"/>
<path d="M0 0 C0.53625 0.226875 1.0725 0.45375 1.625 0.6875 C1.625 2.3375 1.625 3.9875 1.625 5.6875 C-0.94713134 7.30699011 -2.05169159 7.73158751 -5.125 7.3125 C-5.8675 7.10625 -6.61 6.9 -7.375 6.6875 C-7.705 5.3675 -8.035 4.0475 -8.375 2.6875 C-2.95961538 -0.38942308 -2.95961538 -0.38942308 0 0 Z " fill="#151C5E" transform="translate(447.375,166.3125)"/>
<path d="M0 0 C-1.66751148 3.94139078 -4.22710649 6.7892812 -7 10 C-8.65 9.67 -10.3 9.34 -12 9 C-11.35953563 6.11791034 -10.65269374 4.43282445 -8.15625 2.77734375 C-2.66129032 0 -2.66129032 0 0 0 Z " fill="#12195D" transform="translate(437,171)"/>
<path d="M0 0 C1.9375 0.8125 1.9375 0.8125 4 2 C4.33 2.99 4.66 3.98 5 5 C3.35 4.67 1.7 4.34 0 4 C0.33 5.65 0.66 7.3 1 9 C0.236875 8.773125 -0.52625 8.54625 -1.3125 8.3125 C-2.6428125 8.1578125 -2.6428125 8.1578125 -4 8 C-5.7087646 9.37514541 -5.7087646 9.37514541 -7 11 C-7.66 11 -8.32 11 -9 11 C-7.59155282 7.78475695 -5.89655214 5.67816132 -3.375 3.25 C-2.74335938 2.63640625 -2.11171875 2.0228125 -1.4609375 1.390625 C-0.73777344 0.70226562 -0.73777344 0.70226562 0 0 Z " fill="#E0E2EA" transform="translate(191,342)"/>
<path d="M0 0 C0.66 0 1.32 0 2 0 C3.65 2.97 5.3 5.94 7 9 C8.65 8.67 10.3 8.34 12 8 C11.25 9.9375 11.25 9.9375 10 12 C8.68 12.33 7.36 12.66 6 13 C2.535 7.06 2.535 7.06 -1 1 C-0.67 0.67 -0.34 0.34 0 0 Z " fill="#D9DAE5" transform="translate(375,367)"/>
<path d="M0 0 C2.03833424 1.2739589 4.03852126 2.61061923 6 4 C6 4.66 6 5.32 6 6 C4.9171875 6.309375 4.9171875 6.309375 3.8125 6.625 C1.05249768 7.97433447 0.15478986 8.80020565 -1.6875 11.125 C-2.450625 12.07375 -3.21375 13.0225 -4 14 C-4.66 14 -5.32 14 -6 14 C-4.94521607 10.92354688 -3.91554869 8.89865843 -1.8125 6.375 C-1.214375 5.59125 -0.61625 4.8075 0 4 C-0.33 3.01 -0.66 2.02 -1 1 C-0.67 0.67 -0.34 0.34 0 0 Z " fill="#E0E1E9" transform="translate(204,353)"/>
<path d="M0 0 C1.32 0.33 2.64 0.66 4 1 C3.625 3.4375 3.625 3.4375 3 6 C0.17116253 7.41441874 -1.87376745 7.31900332 -5 7 C-6.875 5 -6.875 5 -8 3 C-5.525 3.495 -5.525 3.495 -3 4 C-2.01 2.68 -1.02 1.36 0 0 Z " fill="#E4E5ED" transform="translate(434,194)"/>
<path d="M0 0 C2.0625 0.4375 2.0625 0.4375 4 1 C4 3.31 4 5.62 4 8 C2.35 8.33 0.7 8.66 -1 9 C-1.09765625 2.84765625 -1.09765625 2.84765625 -1 1 C-0.67 0.67 -0.34 0.34 0 0 Z " fill="#F6F1E6" transform="translate(151,235)"/>
<path d="M0 0 C-0.44876616 1.64846769 -0.90930488 3.29373455 -1.375 4.9375 C-1.63023437 5.85402344 -1.88546875 6.77054688 -2.1484375 7.71484375 C-3 10 -3 10 -5 11 C-5.99 10.34 -6.98 9.68 -8 9 C-6.68994234 5.06982701 -4.75047804 0 0 0 Z " fill="#131B5D" transform="translate(408,133)"/>
<path d="M0 0 C0.99 0 1.98 0 3 0 C1.55575365 3.23861303 -0.25772247 5.61969163 -2.625 8.25 C-3.25664062 8.95640625 -3.88828125 9.6628125 -4.5390625 10.390625 C-5.02117187 10.92171875 -5.50328125 11.4528125 -6 12 C-6.66 11.67 -7.32 11.34 -8 11 C-8 8 -8 8 -6.50390625 6.46484375 C-5.86324219 5.96082031 -5.22257813 5.45679688 -4.5625 4.9375 C-1.84124807 2.8328667 -1.84124807 2.8328667 0 0 Z " fill="#E0E1EA" transform="translate(226,369)"/>
<path d="M0 0 C0 1.32 0 2.64 0 4 C-1.65 4.33 -3.3 4.66 -5 5 C-5.33 6.98 -5.66 8.96 -6 11 C-6.66 11 -7.32 11 -8 11 C-7.51282051 4.66666667 -7.51282051 4.66666667 -5.125 1.5625 C-3 0 -3 0 0 0 Z " fill="#A6A9C2" transform="translate(259,384)"/>
<path d="M0 0 C3 1 3 1 4.5625 4 C5.036875 4.99 5.51125 5.98 6 7 C6.66 7.33 7.32 7.66 8 8 C7.67 8.99 7.34 9.98 7 11 C3.535 9.02 3.535 9.02 0 7 C0 4.66666667 0 2.33333333 0 0 Z " fill="#A5A8C1" transform="translate(431,315)"/>
<path d="M0 0 C0.33 0.99 0.66 1.98 1 3 C1.66 3 2.32 3 3 3 C3.66 5.31 4.32 7.62 5 10 C2.03 9.67 -0.94 9.34 -4 9 C-4 8.34 -4 7.68 -4 7 C-3.01 7 -2.02 7 -1 7 C-0.67 4.69 -0.34 2.38 0 0 Z " fill="#CFD0DE" transform="translate(316,90)"/>
<path d="M0 0 C1.32 0 2.64 0 4 0 C4 2.97 4 5.94 4 9 C2.68 9 1.36 9 0 9 C0 6.03 0 3.06 0 0 Z " fill="#212867" transform="translate(307,390)"/>
<path d="M0 0 C3.17538332 0.34021964 4.02276865 1.02466604 6.25 3.4375 C8 6 8 6 8 8 C6.68 8 5.36 8 4 8 C0 3.88888889 0 3.88888889 0 0 Z " fill="#192061" transform="translate(392,358)"/>
<path d="M0 0 C0.53625 0.268125 1.0725 0.53625 1.625 0.8125 C-4.125 5.8125 -4.125 5.8125 -6.375 5.8125 C-5.715 7.4625 -5.055 9.1125 -4.375 10.8125 C-5.695 10.4825 -7.015 10.1525 -8.375 9.8125 C-8.75 7.625 -8.75 7.625 -8.375 4.8125 C-3.50691489 -0.2768617 -3.50691489 -0.2768617 0 0 Z " fill="#E9E9F0" transform="translate(178.375,329.1875)"/>
<path d="M0 0 C4.75 0.875 4.75 0.875 7 2 C7 2.66 7 3.32 7 4 C6.21625 4.103125 5.4325 4.20625 4.625 4.3125 C1.66954819 4.77595022 1.66954819 4.77595022 0 8 C-0.66 7.67 -1.32 7.34 -2 7 C-1.34 4.69 -0.68 2.38 0 0 Z " fill="#DBDCE6" transform="translate(143,172)"/>
<path d="M0 0 C0 3.63195496 -0.95453155 4.74713911 -3 7.6875 C-3.556875 8.49574219 -4.11375 9.30398437 -4.6875 10.13671875 C-5.120625 10.75160156 -5.55375 11.36648437 -6 12 C-6.66 11.67 -7.32 11.34 -8 11 C-6.79271637 6.57329336 -5.52441688 3.97372674 -2 1 C-1.34 0.67 -0.68 0.34 0 0 Z " fill="#E1E2EB" transform="translate(337,81)"/>
<path d="M0 0 C0.8353125 0.37125 0.8353125 0.37125 1.6875 0.75 C-1.63557692 5.55 -1.63557692 5.55 -5.0625 6.5625 C-5.805 6.624375 -6.5475 6.68625 -7.3125 6.75 C-7.3125 5.76 -7.3125 4.77 -7.3125 3.75 C-3.21493902 -0.34756098 -3.21493902 -0.34756098 0 0 Z " fill="#10185B" transform="translate(179.3125,331.25)"/>
<path d="M0 0 C2.04119788 1.61594832 4.04072937 3.2856382 6 5 C6 5.66 6 6.32 6 7 C3.03 7 0.06 7 -3 7 C-2.34 6.67 -1.68 6.34 -1 6 C-0.34227572 2.97065509 -0.34227572 2.97065509 0 0 Z " fill="#CCCEDC" transform="translate(423,125)"/>
<path d="M0 0 C0.33 0.66 0.66 1.32 1 2 C2.92638012 2.75243555 2.92638012 2.75243555 5 3 C5.66 2.67 6.32 2.34 7 2 C7.144375 2.763125 7.28875 3.52625 7.4375 4.3125 C7.9632594 7.08172908 7.9632594 7.08172908 9 10 C5.78956118 8.61811547 3.95063635 7.07578097 1.75 4.375 C1.22921875 3.74335938 0.7084375 3.11171875 0.171875 2.4609375 C-0.21484375 1.97882813 -0.6015625 1.49671875 -1 1 C-0.67 0.67 -0.34 0.34 0 0 Z " fill="#F2F2F6" transform="translate(405,346)"/>
<path d="M0 0 C2.5 0.125 2.5 0.125 3.5 1.125 C3.54063832 2.79117115 3.542721 4.45888095 3.5 6.125 C2.51 6.455 1.52 6.785 0.5 7.125 C0.5 5.805 0.5 4.485 0.5 3.125 C-0.16 3.125 -0.82 3.125 -1.5 3.125 C-2.16 4.445 -2.82 5.765 -3.5 7.125 C-3.54254356 5.12545254 -3.54080783 3.12458364 -3.5 1.125 C-2.5 0.125 -2.5 0.125 0 0 Z " fill="#ECEDF2" transform="translate(168.5,312.875)"/>
<path d="M0 0 C3.37503669 1.1858237 5.64722731 2.27573689 8 5 C6.625 6.5 6.625 6.5 5 8 C4.34 8 3.68 8 3 8 C0 2.25 0 2.25 0 0 Z " fill="#232A68" transform="translate(188,122)"/>
<path d="M0 0 C2.64 0 5.28 0 8 0 C6.68 2.97 5.36 5.94 4 9 C3.67 9 3.34 9 3 9 C2.87625 8.030625 2.7525 7.06125 2.625 6.0625 C2.41875 5.051875 2.2125 4.04125 2 3 C1.34 2.67 0.68 2.34 0 2 C0 1.34 0 0.68 0 0 Z " fill="#DCDDE7" transform="translate(282,70)"/>
<path d="M0 0 C0.99 0.33 1.98 0.66 3 1 C3.3721042 2.32303717 3.70630173 3.65737935 4 5 C4.66 5.33 5.32 5.66 6 6 C6 6.66 6 7.32 6 8 C3.0625 7.25 3.0625 7.25 0 6 C-0.9375 4 -0.9375 4 -1 2 C-0.67 1.34 -0.34 0.68 0 0 Z " fill="#D4D6E2" transform="translate(138,186)"/>
<path d="M0 0 C2.31 0.33 4.62 0.66 7 1 C7.33 2.98 7.66 4.96 8 7 C7.34 6.01 6.68 5.02 6 4 C3.94074861 3.27617533 3.94074861 3.27617533 2 3 C1.67 3.66 1.34 4.32 1 5 C0.67 3.35 0.34 1.7 0 0 Z " fill="#D0D2DF" transform="translate(305,387)"/>
<path d="M0 0 C0.33 0.99 0.66 1.98 1 3 C1.66 3 2.32 3 3 3 C2.34 5.31 1.68 7.62 1 10 C0.34 10 -0.32 10 -1 10 C-2.23076923 4.58461538 -2.23076923 4.58461538 -1.0625 1.625 C-0.5365625 0.820625 -0.5365625 0.820625 0 0 Z " fill="#AAADC5" transform="translate(238,380)"/>
<path d="M0 0 C0.33 0 0.66 0 1 0 C1.33074549 3.63820044 1.48805542 5.3773086 -0.8125 8.3125 C-3 10 -3 10 -6 11 C-5.75 9.1875 -5.75 9.1875 -5 7 C-3.66666667 6 -2.33333333 5 -1 4 C-0.20376178 1.90584196 -0.20376178 1.90584196 0 0 Z " fill="#CFD1DE" transform="translate(259,96)"/>
<path d="M0 0 C0.99 0.33 1.98 0.66 3 1 C3.33 3.97 3.66 6.94 4 10 C3.01 10.495 3.01 10.495 2 11 C1.34 7.37 0.68 3.74 0 0 Z " fill="#F1F1F5" transform="translate(255,90)"/>
<path d="M0 0 C0.66 0 1.32 0 2 0 C1.46930939 3.82097239 0.50298434 6.06171403 -2 9 C-2.6875 6.75 -2.6875 6.75 -3 4 C-1.6875 1.6875 -1.6875 1.6875 0 0 Z " fill="#F4F5F7" transform="translate(222,367)"/>
<path d="M0 0 C1.98 0 3.96 0 6 0 C6 0.66 6 1.32 6 2 C5.01 2.495 5.01 2.495 4 3 C3.01 4.485 3.01 4.485 2 6 C1.34 5.67 0.68 5.34 0 5 C0 3.35 0 1.7 0 0 Z " fill="#D0D1DE" transform="translate(324,385)"/>
<path d="M0 0 C1.9375 0.75 1.9375 0.75 4 2 C4.75 4.125 4.75 4.125 5 6 C3.68 6.33 2.36 6.66 1 7 C0.67 4.69 0.34 2.38 0 0 Z " fill="#DDDEE8" transform="translate(186,144)"/>
<path d="M0 0 C0 0.99 0 1.98 0 3 C-3 5 -3 5 -6 6 C-6.33 5.01 -6.66 4.02 -7 3 C-2.25 0 -2.25 0 0 0 Z " fill="#D2D4E0" transform="translate(365,373)"/>
<path d="M0 0 C-1 2 -1 2 -3 4 C-3.99 4 -4.98 4 -6 4 C-6 2.68 -6 1.36 -6 0 C-3.50907189 -1.24546405 -2.58919267 -0.7767578 0 0 Z " fill="#E8E9EF" transform="translate(220,374)"/>
<path d="M0 0 C0.99 0.33 1.98 0.66 3 1 C2.67 2.32 2.34 3.64 2 5 C-0.31 4.67 -2.62 4.34 -5 4 C-4.360625 3.71125 -3.72125 3.4225 -3.0625 3.125 C-0.84793921 2.17176549 -0.84793921 2.17176549 0 0 Z " fill="#ECE3CD" transform="translate(463,239)"/>
<path d="M0 0 C0.99 0.33 1.98 0.66 3 1 C3 1.66 3 2.32 3 3 C3.99 3.33 4.98 3.66 6 4 C6.33 4.66 6.66 5.32 7 6 C4.625 5.8125 4.625 5.8125 2 5 C0.6875 2.4375 0.6875 2.4375 0 0 Z " fill="#CDCEDC" transform="translate(393,363)"/>
<path d="M0 0 C2.0625 0.4375 2.0625 0.4375 4 1 C3.01 1.495 3.01 1.495 2 2 C2.33 3.65 2.66 5.3 3 7 C2.01 7 1.02 7 0 7 C-0.38133299 5.0085944 -0.71325582 3.00720923 -1 1 C-0.67 0.67 -0.34 0.34 0 0 Z " fill="#F1F1F5" transform="translate(391,356)"/>
<path d="M0 0 C0 0.99 0 1.98 0 3 C-1.98 3.66 -3.96 4.32 -6 5 C-6.33 4.01 -6.66 3.02 -7 2 C-2.25 0 -2.25 0 0 0 Z " fill="#D2D3E0" transform="translate(370,384)"/>
<path d="M0 0 C0.33 0.99 0.66 1.98 1 3 C2.65 3 4.3 3 6 3 C6 3.66 6 4.32 6 5 C3.69 5 1.38 5 -1 5 C-0.67 3.35 -0.34 1.7 0 0 Z " fill="#E4E5EC" transform="translate(272,395)"/>
<path d="M0 0 C2.475 0.495 2.475 0.495 5 1 C5.33 2.65 5.66 4.3 6 6 C1.125 2.25 1.125 2.25 0 0 Z " fill="#BFC1D3" transform="translate(392,355)"/>
<path d="M0 0 C0.99 0.33 1.98 0.66 3 1 C1.35 2.65 -0.3 4.3 -2 6 C-2.33 5.34 -2.66 4.68 -3 4 C-2.01 2.68 -1.02 1.36 0 0 Z " fill="#D4D5E1" transform="translate(428,336)"/>
<path d="M0 0 C0.99 0.33 1.98 0.66 3 1 C2.67 2.32 2.34 3.64 2 5 C1.01 5 0.02 5 -1 5 C-1.33 4.34 -1.66 3.68 -2 3 C-1.34 2.01 -0.68 1.02 0 0 Z " fill="#C3C5D6" transform="translate(320,79)"/>
</svg>
